<svg width="12" height="12" viewBox="0 0 12 12" fill="none" xmlns="http://www.w3.org/2000/svg">
<path fill-rule="evenodd" clip-rule="evenodd" d="M10.001 11.25C11.2245 11.25 11.8333 10.6145 11.8333 9.35565V2.64435C11.8333 1.38552 11.2245 0.75 10.001 0.75H2.00473C0.781277 0.75 0.166626 1.37941 0.166626 2.64435V9.35565C0.166626 10.6206 0.781277 11.25 2.00473 11.25H10.001ZM10.0771 10.2662H1.91688C1.39589 10.2662 1.10905 9.97895 1.10905 9.41064V3.64815C1.10905 3.08596 1.39589 2.79264 1.91688 2.79264H10.0771C10.5981 2.79264 10.8908 3.08596 10.8908 3.64815V9.41064C10.8908 9.97895 10.5981 10.2662 10.0771 10.2662ZM5.20079 4.98642C5.40567 4.98642 5.47592 4.92531 5.47592 4.71144V4.3509C5.47592 4.13702 5.40567 4.0698 5.20079 4.0698H4.85541C4.65053 4.0698 4.58028 4.13702 4.58028 4.3509V4.71144C4.58028 4.92531 4.65053 4.98642 4.85541 4.98642H5.20079ZM7.14431 4.98642C7.3492 4.98642 7.41944 4.92531 7.41944 4.71144V4.3509C7.41944 4.13702 7.3492 4.0698 7.14431 4.0698H6.80479C6.59406 4.0698 6.52966 4.13702 6.52966 4.3509V4.71144C6.52966 4.92531 6.59406 4.98642 6.80479 4.98642H7.14431ZM9.09357 4.98642C9.29845 4.98642 9.36284 4.92531 9.36284 4.71144V4.3509C9.36284 4.13702 9.29845 4.0698 9.09357 4.0698H8.74819C8.54331 4.0698 8.47306 4.13702 8.47306 4.3509V4.71144C8.47306 4.92531 8.54331 4.98642 8.74819 4.98642H9.09357ZM3.25739 6.98466C3.46227 6.98466 3.52666 6.92355 3.52666 6.70967V6.34913C3.52666 6.13525 3.46227 6.07415 3.25739 6.07415H2.91201C2.70713 6.07415 2.63688 6.13525 2.63688 6.34913V6.70967C2.63688 6.92355 2.70713 6.98466 2.91201 6.98466H3.25739ZM5.20079 6.98466C5.40567 6.98466 5.47592 6.92355 5.47592 6.70967V6.34913C5.47592 6.13525 5.40567 6.07415 5.20079 6.07415H4.85541C4.65053 6.07415 4.58028 6.13525 4.58028 6.34913V6.70967C4.58028 6.92355 4.65053 6.98466 4.85541 6.98466H5.20079ZM7.14431 6.98466C7.3492 6.98466 7.41944 6.92355 7.41944 6.70967V6.34913C7.41944 6.13525 7.3492 6.07415 7.14431 6.07415H6.80479C6.59406 6.07415 6.52966 6.13525 6.52966 6.34913V6.70967C6.52966 6.92355 6.59406 6.98466 6.80479 6.98466H7.14431ZM9.09357 6.98466C9.29845 6.98466 9.36284 6.92355 9.36284 6.70967V6.34913C9.36284 6.13525 9.29845 6.07415 9.09357 6.07415H8.74819C8.54331 6.07415 8.47306 6.13525 8.47306 6.34913V6.70967C8.47306 6.92355 8.54331 6.98466 8.74819 6.98466H9.09357ZM3.25739 8.989C3.46227 8.989 3.52666 8.92178 3.52666 8.7079V8.34736C3.52666 8.13348 3.46227 8.07238 3.25739 8.07238H2.91201C2.70713 8.07238 2.63688 8.13348 2.63688 8.34736V8.7079C2.63688 8.92178 2.70713 8.989 2.91201 8.989H3.25739ZM5.20079 8.989C5.40567 8.989 5.47592 8.92178 5.47592 8.7079V8.34736C5.47592 8.13348 5.40567 8.07238 5.20079 8.07238H4.85541C4.65053 8.07238 4.58028 8.13348 4.58028 8.34736V8.7079C4.58028 8.92178 4.65053 8.989 4.85541 8.989H5.20079ZM7.14431 8.989C7.3492 8.989 7.41944 8.92178 7.41944 8.7079V8.34736C7.41944 8.13348 7.3492 8.07238 7.14431 8.07238H6.80479C6.59406 8.07238 6.52966 8.13348 6.52966 8.34736V8.7079C6.52966 8.92178 6.59406 8.989 6.80479 8.989H7.14431Z" fill="#CFD8DC"/>
</svg>
