<svg width="20" height="18" viewBox="0 0 20 18" fill="none" xmlns="http://www.w3.org/2000/svg">
<path fill-rule="evenodd" clip-rule="evenodd" d="M10 18C10.2115 18 10.5136 17.8627 10.7351 17.7353C16.4048 14.2059 20 10.098 20 5.92157C20 2.45098 17.5529 0 14.29 0C12.427 0 10.9164 0.862745 10 2.18627C9.10373 0.872549 7.57301 0 5.70997 0C2.44713 0 0 2.45098 0 5.92157C0 10.098 3.59517 14.2059 9.27492 17.7353C9.4864 17.8627 9.78852 18 10 18ZM10 16.3431C9.95972 16.3431 9.88922 16.2941 9.79859 16.2255C5.57905 13.5 1.62135 9.56863 1.62135 5.92157C1.62135 3.31373 3.35347 1.57843 5.68983 1.57843C7.58308 1.57843 8.67069 2.72549 9.31521 3.70588C9.58711 4.09804 9.75831 4.20588 10 4.20588C10.2417 4.20588 10.3927 4.08824 10.6848 3.70588C11.3797 2.7451 12.427 1.57843 14.3102 1.57843C16.6465 1.57843 18.3787 3.31373 18.3787 5.92157C18.3787 9.56863 14.4209 13.5 10.2115 16.2255C10.1108 16.2941 10.0403 16.3431 10 16.3431Z" fill="#1A1A1A"/>
</svg>
