<svg width="14" height="14" viewBox="0 0 14 14" fill="none" xmlns="http://www.w3.org/2000/svg">
<path fill-rule="evenodd" clip-rule="evenodd" d="M11.1108 13.2239C11.357 13.0389 11.411 12.7345 11.2609 12.3048L10.0061 8.58657L13.2121 6.30074C13.5844 6.03814 13.7345 5.75764 13.6384 5.46519C13.5424 5.17275 13.2602 5.02951 12.7979 5.03548L8.86538 5.06532L7.67062 1.32922C7.52652 0.89354 7.31039 0.666748 6.99819 0.666748C6.69199 0.666748 6.47586 0.89354 6.33177 1.32922L5.13701 5.06532L1.2045 5.03548C0.742211 5.02951 0.460031 5.17275 0.36397 5.46519C0.261905 5.75764 0.418005 6.03814 0.790241 6.30074L3.99628 8.58657L2.74148 12.3048C2.59139 12.7345 2.64542 13.0389 2.89158 13.2239C3.13773 13.4149 3.44993 13.3492 3.82217 13.0806L6.99819 10.759L10.1802 13.0806C10.5524 13.3492 10.8586 13.4149 11.1108 13.2239ZM10.1922 12.0362L7.30439 9.84588C7.11226 9.69667 6.89012 9.69667 6.698 9.84588L3.81016 12.0362C3.78615 12.0541 3.76814 12.0601 3.75613 12.0482C3.74412 12.0302 3.75012 12.0243 3.75613 11.9885L4.95089 8.58062C5.03494 8.34786 4.98691 8.15687 4.77678 8.01364L1.78688 5.96057C1.75686 5.94267 1.75085 5.93073 1.75686 5.91879C1.76286 5.90089 1.77487 5.90089 1.81089 5.90089L5.4432 5.96057C5.68936 5.96654 5.84546 5.87105 5.92351 5.62635L6.96817 2.17075C6.97417 2.13494 6.98618 2.12301 6.99819 2.12301C7.0162 2.12301 7.02821 2.13494 7.03421 2.17075L8.07888 5.62635C8.15693 5.87105 8.31303 5.96654 8.55918 5.96057L12.1915 5.90089C12.2275 5.90089 12.2395 5.90089 12.2455 5.91879C12.2515 5.93073 12.2395 5.94267 12.2155 5.96057L9.22561 8.01364C9.01547 8.15687 8.96744 8.34786 9.0515 8.58062L10.2463 11.9885C10.2523 12.0243 10.2583 12.0302 10.2463 12.0482C10.2342 12.0601 10.2162 12.0541 10.1922 12.0362Z" fill="#CFD8DC"/>
</svg>
