<svg width="8" height="14" viewBox="0 0 8 14" fill="none" xmlns="http://www.w3.org/2000/svg">
<path fill-rule="evenodd" clip-rule="evenodd" d="M7.06758 14C7.59256 14 8 13.5896 8 13.0688C8 12.8083 7.89814 12.5716 7.71792 12.3901L2.2331 6.99211L7.71792 1.60992C7.89814 1.42841 8 1.18377 8 0.931229C8 0.410372 7.59256 0 7.06758 0C6.81685 0 6.59745 0.0947012 6.42507 0.26832L0.329089 6.26607C0.109696 6.47125 0 6.72379 0 7C0 7.27621 0.109696 7.51297 0.321254 7.72604L6.41724 13.7317C6.59745 13.9053 6.81685 14 7.06758 14Z" fill="#1A1A1A"/>
</svg>
