<svg width="92" height="92" viewBox="0 0 92 92" fill="none" xmlns="http://www.w3.org/2000/svg">
<path d="M65.9314 11.9781C64.9192 10.966 63.694 10.1614 62.3668 9.63446C60.8315 5.67938 56.8443 2.95182 52.5796 3.00142H52.578C45.5316 2.88354 40.3082 10.1243 42.5486 16.7432L36.7463 22.5457C33.0079 21.3452 28.8784 22.3274 26.0797 25.1259C20.7289 30.4133 22.6459 39.6217 29.6442 42.3572C30.1709 43.684 30.9755 44.9092 31.9879 45.9217C34.0404 47.9741 36.7356 49.0002 39.4317 49C42.1272 48.9997 44.8235 47.9736 46.8756 45.9217C49.6743 43.1229 50.6562 38.9935 49.4558 35.2549L55.2581 29.4524C56.311 29.7934 57.3953 29.9598 58.4734 29.9597C61.2152 29.9596 63.9138 28.8831 65.9313 26.8655C67.9097 24.8871 68.9994 22.244 68.9998 19.423C69.0004 16.6014 67.9106 13.9573 65.9314 11.9781ZM64.6607 25.5949C62.2118 28.0439 58.5567 28.8225 55.3488 27.5783C55.0169 27.4496 54.6403 27.5289 54.3885 27.7806L47.7852 34.3842C47.5342 34.6351 47.4545 35.0103 47.5818 35.3417C48.818 38.5597 48.0421 42.2137 45.6049 44.6509C41.1766 49.1878 33.2061 47.3666 31.1906 41.3625C31.1003 41.1041 30.8972 40.9011 30.6388 40.8107C29.394 40.3756 28.2876 39.6799 27.3503 38.7427C20.8004 31.9081 27.7853 21.2234 36.6594 24.4195C36.9908 24.5468 37.3661 24.4672 37.6169 24.2161L44.2202 17.6125C44.4719 17.3609 44.5513 16.9842 44.4226 16.6523C41.1544 7.85724 52.014 0.774683 58.7525 7.3407C59.6761 8.26435 60.3912 9.40148 60.8205 10.6292C60.9108 10.8875 61.1139 11.0905 61.3721 11.1808C67.4043 13.2521 69.1802 21.113 64.6607 25.5949Z" fill="#7B8E98"/>
<path d="M63.3842 14.5199C62.5695 13.7052 61.5577 13.1022 60.4582 12.7759C60.3896 12.7555 60.3229 12.7365 60.2579 12.7178C59.5146 12.5035 59.4926 12.4816 59.2783 11.7384C59.2596 11.6734 59.2405 11.6066 59.2202 11.538C58.894 10.4385 58.2909 9.42671 57.4761 8.61205C56.1704 7.306 54.4218 6.58963 52.5569 6.59556C50.7013 6.60113 48.9662 7.31732 47.6715 8.61205C46.3921 9.89132 45.6667 11.5782 45.6288 13.3617C45.5973 14.8423 46.0396 16.2776 46.8866 17.4829L37.487 26.8831C34.7696 24.9799 31.022 25.262 28.6165 27.6674C25.9269 30.248 25.927 34.8913 28.6165 37.4718C29.4316 38.2869 30.4434 38.89 31.5428 39.216C31.6111 39.2362 31.6775 39.2553 31.7421 39.2738C32.117 39.3812 32.3029 39.4386 32.4303 39.566C32.5577 39.6934 32.6151 39.8793 32.7226 40.2542C32.7411 40.3189 32.7602 40.3853 32.7805 40.4537C34.2497 45.4613 40.6542 47.0909 44.3291 43.3799C46.7346 40.9744 47.0167 37.2268 45.1134 34.5095L54.5133 25.1092C55.7187 25.9562 57.1545 26.4001 58.6346 26.3671C60.4181 26.3293 62.105 25.6038 63.3842 24.3245C64.6791 23.0298 65.3952 21.2948 65.4008 19.4391C65.4064 17.5729 64.6903 15.826 63.3842 14.5199ZM62.1136 23.0537C60.1474 25.0197 57.1092 25.0999 55.0463 23.2398C54.691 22.9196 54.1474 22.9335 53.8093 23.2718L43.2765 33.805C42.9384 34.1431 42.9244 34.6869 43.2446 35.042C45.0742 37.071 44.9925 40.1752 43.0585 42.1091C40.3603 44.8541 35.5664 43.6353 34.5034 39.9428C34.4847 39.8797 34.4672 39.8184 34.4501 39.7589C34.3089 39.2663 34.1629 38.757 33.7012 38.2953C33.2394 37.8336 32.73 37.6876 32.2373 37.5463C32.1777 37.5293 32.1165 37.5116 32.0536 37.493C31.2405 37.2519 30.4913 36.8052 29.8872 36.2011C27.8948 34.2894 27.8948 30.8498 29.8872 28.938C31.8211 27.0042 34.9254 26.9224 36.9544 28.752C37.3096 29.0721 37.8533 29.0582 38.1915 28.72L48.7243 18.1868C49.0624 17.8487 49.0765 17.3049 48.7562 16.9497C46.8962 14.8869 46.9762 11.8488 48.9424 9.8827C49.8991 8.92589 51.1849 8.39668 52.5626 8.39254C54.8084 8.35283 56.8832 9.90686 57.4975 12.0491C57.5163 12.1125 57.5339 12.174 57.5511 12.2339C57.6923 12.7262 57.8383 13.2352 58.2998 13.6966C58.7612 14.158 59.2703 14.304 59.7626 14.4452C59.8225 14.4624 59.884 14.4801 59.9472 14.4988C60.7607 14.7402 61.5099 15.187 62.1137 15.7907C63.0788 16.7559 63.6081 18.0496 63.6039 19.4337C63.5996 20.8113 63.0704 22.097 62.1136 23.0537Z" fill="#7B8E98"/>
<path d="M52.9295 12.0074L52.929 12.007C52.5782 11.6561 52.0095 11.6564 51.6585 12.0072C51.0914 12.5658 51.5083 13.55 52.2941 13.5413C53.08 13.5499 53.4968 12.5659 52.9295 12.0074Z" fill="#7B8E98"/>
<path d="M60.0435 17.5977C59.6927 17.2468 59.124 17.247 58.773 17.598C58.2059 18.1567 58.6228 19.1407 59.4086 19.1321C60.1944 19.1407 60.6113 18.1567 60.044 17.5982L60.0435 17.5977Z" fill="#7B8E98"/>
<path d="M53.9815 18.3948L53.981 18.3943C53.067 17.6276 51.9227 18.8884 52.7727 19.7244C53.1389 20.0575 53.7073 20.032 54.0419 19.664C54.3757 19.2968 54.3486 18.7285 53.9815 18.3948Z" fill="#7B8E98"/>
<path d="M47.2432 22.588L47.2427 22.5875C46.3288 21.8208 45.1845 23.0816 46.0344 23.9177C46.4006 24.2507 46.969 24.2252 47.3036 23.8572C47.6375 23.49 47.6104 22.9217 47.2432 22.588Z" fill="#7B8E98"/>
<path d="M44.952 28.5565C44.6182 28.1894 44.0502 28.1625 43.6829 28.4963C43.3157 28.8301 43.2889 29.3986 43.6227 29.7657C43.9573 30.1337 44.5258 30.1593 44.892 29.8262C45.2592 29.4924 45.2862 28.9241 44.9524 28.557L44.952 28.5565Z" fill="#7B8E98"/>
<path d="M37.5906 31.2284L37.5901 31.228C36.6762 30.4612 35.5319 31.7221 36.3818 32.5581C36.748 32.8912 37.3165 32.8656 37.6511 32.4976C37.9848 32.1305 37.9578 31.5622 37.5906 31.2284Z" fill="#7B8E98"/>
<path d="M39.6546 37.7378C39.3037 37.3869 38.7351 37.3871 38.3841 37.738C37.817 38.2967 38.2339 39.2807 39.0197 39.2721C39.8055 39.2807 40.2224 38.2967 39.6551 37.7382L39.6546 37.7378Z" fill="#7B8E98"/>
<path d="M32.2818 32.1468C31.9309 31.7959 31.3623 31.7961 31.0113 32.147C30.4442 32.7056 30.8611 33.6898 31.6469 33.6811C32.4327 33.6898 32.8496 32.7058 32.2822 32.1473L32.2818 32.1468Z" fill="#7B8E98"/>
<path d="M9.87069 75.744C9.87069 77.3333 9.76402 78.656 9.55069 79.712C9.34802 80.7573 9.03335 81.6053 8.60669 82.256C8.19069 82.896 7.65202 83.4187 6.99069 83.824C6.77735 83.952 6.56402 84.016 6.35069 84.016C6.10535 84.016 5.89735 83.9307 5.72669 83.76C5.56669 83.5893 5.48669 83.3867 5.48669 83.152C5.48669 82.9707 5.54002 82.7947 5.64669 82.624C5.75335 82.4533 5.91335 82.304 6.12669 82.176C6.72402 81.856 7.16669 81.232 7.45469 80.304C7.74269 79.3653 7.88669 77.9573 7.88669 76.08V73.696C7.88669 73.3867 7.97202 73.1467 8.14269 72.976C8.31335 72.8053 8.55335 72.72 8.86269 72.72H14.8627C15.172 72.72 15.4067 72.8053 15.5667 72.976C15.7374 73.1467 15.8227 73.3867 15.8227 73.696V83.072C15.8227 83.3813 15.7267 83.632 15.5347 83.824C15.3534 84.0053 15.1134 84.096 14.8147 84.096C14.5054 84.096 14.26 84.0053 14.0787 83.824C13.8974 83.632 13.8067 83.3813 13.8067 83.072V74.368H9.87069V75.744ZM21.4867 75.984C22.5747 75.984 23.38 76.256 23.9027 76.8C24.436 77.3333 24.7027 78.1493 24.7027 79.248V83.152C24.7027 83.44 24.6174 83.6693 24.4467 83.84C24.276 84 24.0414 84.08 23.7427 84.08C23.4654 84.08 23.236 83.9947 23.0547 83.824C22.884 83.6533 22.7987 83.4293 22.7987 83.152V82.8C22.6174 83.216 22.3294 83.5413 21.9347 83.776C21.5507 84.0107 21.1027 84.128 20.5907 84.128C20.068 84.128 19.5934 84.0213 19.1667 83.808C18.74 83.5947 18.404 83.3013 18.1587 82.928C17.9134 82.5547 17.7907 82.1387 17.7907 81.68C17.7907 81.104 17.9347 80.6507 18.2227 80.32C18.5214 79.9893 19.0014 79.7493 19.6627 79.6C20.324 79.4507 21.236 79.376 22.3987 79.376H22.7987V79.008C22.7987 78.4853 22.6867 78.1067 22.4627 77.872C22.2387 77.6267 21.876 77.504 21.3747 77.504C21.0654 77.504 20.7507 77.552 20.4307 77.648C20.1107 77.7333 19.732 77.8613 19.2947 78.032C19.0174 78.1707 18.8147 78.24 18.6867 78.24C18.4947 78.24 18.3347 78.1707 18.2067 78.032C18.0894 77.8933 18.0307 77.712 18.0307 77.488C18.0307 77.3067 18.0734 77.152 18.1587 77.024C18.2547 76.8853 18.4094 76.7573 18.6227 76.64C18.996 76.4373 19.4387 76.2773 19.9507 76.16C20.4734 76.0427 20.9854 75.984 21.4867 75.984ZM20.9907 82.688C21.524 82.688 21.956 82.512 22.2867 82.16C22.628 81.7973 22.7987 81.3333 22.7987 80.768V80.432H22.5107C21.796 80.432 21.2414 80.464 20.8467 80.528C20.452 80.592 20.1694 80.704 19.9987 80.864C19.828 81.024 19.7427 81.2427 19.7427 81.52C19.7427 81.8613 19.86 82.144 20.0947 82.368C20.34 82.5813 20.6387 82.688 20.9907 82.688ZM31.3113 79.712C31.6846 79.8507 31.9833 80.0373 32.2073 80.272C32.442 80.5067 32.714 80.9013 33.0233 81.456L33.7273 82.672C33.8233 82.8427 33.8713 83.008 33.8713 83.168C33.8713 83.424 33.77 83.6427 33.5673 83.824C33.3753 83.9947 33.146 84.08 32.8793 84.08C32.5166 84.08 32.2393 83.9093 32.0473 83.568L31.0393 81.776C30.8153 81.4027 30.5966 81.1413 30.3833 80.992C30.17 80.8427 29.8606 80.768 29.4553 80.768H28.8313V83.136C28.8313 83.4347 28.7406 83.6693 28.5593 83.84C28.378 84.0107 28.1326 84.096 27.8233 84.096C27.514 84.096 27.2686 84.0107 27.0873 83.84C26.9166 83.6693 26.8313 83.4347 26.8313 83.136V76.96C26.8313 76.672 26.922 76.4427 27.1033 76.272C27.2846 76.1013 27.5246 76.016 27.8233 76.016C28.1326 76.016 28.378 76.1013 28.5593 76.272C28.7406 76.4427 28.8313 76.672 28.8313 76.96V79.28H29.5513L31.8393 76.432C32.0526 76.1547 32.3033 76.016 32.5913 76.016C32.8153 76.016 33.0073 76.096 33.1673 76.256C33.3273 76.416 33.4073 76.608 33.4073 76.832C33.4073 77.056 33.322 77.2747 33.1513 77.488L31.3113 79.712ZM39.0377 84.128C38.2377 84.128 37.5337 83.9627 36.9257 83.632C36.3284 83.3013 35.8644 82.8267 35.5337 82.208C35.203 81.5893 35.0377 80.8693 35.0377 80.048C35.0377 79.2267 35.203 78.512 35.5337 77.904C35.8644 77.2853 36.3284 76.8107 36.9257 76.48C37.5337 76.1493 38.2377 75.984 39.0377 75.984C39.8377 75.984 40.5364 76.1493 41.1337 76.48C41.7417 76.8107 42.2057 77.2853 42.5257 77.904C42.8564 78.512 43.0217 79.2267 43.0217 80.048C43.0217 80.8693 42.8564 81.5893 42.5257 82.208C42.2057 82.8267 41.7417 83.3013 41.1337 83.632C40.5364 83.9627 39.8377 84.128 39.0377 84.128ZM39.0217 82.576C39.6724 82.576 40.1684 82.3627 40.5097 81.936C40.851 81.5093 41.0217 80.88 41.0217 80.048C41.0217 79.2267 40.851 78.6027 40.5097 78.176C40.1684 77.7387 39.6777 77.52 39.0377 77.52C38.3977 77.52 37.9017 77.7387 37.5497 78.176C37.2084 78.6027 37.0377 79.2267 37.0377 80.048C37.0377 80.88 37.2084 81.5093 37.5497 81.936C37.891 82.3627 38.3817 82.576 39.0217 82.576ZM52.3048 76.016C52.6141 76.016 52.8595 76.1013 53.0408 76.272C53.2221 76.4427 53.3128 76.672 53.3128 76.96V83.168C53.3128 83.4347 53.2275 83.6587 53.0568 83.84C52.8861 84.0107 52.6675 84.096 52.4008 84.096C52.1341 84.096 51.9101 84.0107 51.7288 83.84C51.5581 83.6587 51.4728 83.4347 51.4728 83.168L51.4888 79.136L49.8888 82.112C49.7928 82.2827 49.6648 82.4213 49.5048 82.528C49.3448 82.624 49.1688 82.672 48.9768 82.672C48.5715 82.672 48.2621 82.4853 48.0488 82.112L46.4488 79.136L46.4648 83.168C46.4648 83.4347 46.3741 83.6587 46.1928 83.84C46.0221 84.0107 45.8035 84.096 45.5368 84.096C45.2701 84.096 45.0515 84.0107 44.8808 83.84C44.7101 83.6587 44.6248 83.4347 44.6248 83.168V77.024C44.6248 76.7147 44.7048 76.4693 44.8648 76.288C45.0355 76.1067 45.2701 76.016 45.5688 76.016C45.8568 76.016 46.0968 76.064 46.2888 76.16C46.4808 76.2453 46.6515 76.432 46.8008 76.72L48.9768 80.832L51.0728 76.848C51.2435 76.5387 51.4141 76.3253 51.5848 76.208C51.7661 76.08 52.0061 76.016 52.3048 76.016ZM58.8167 84.128C58.038 84.128 57.35 83.9627 56.7527 83.632C56.166 83.3013 55.7127 82.832 55.3927 82.224C55.0727 81.616 54.9127 80.9067 54.9127 80.096C54.9127 79.2853 55.078 78.5707 55.4087 77.952C55.75 77.3227 56.2247 76.8373 56.8327 76.496C57.4407 76.1547 58.1394 75.984 58.9287 75.984C59.3447 75.984 59.7607 76.0427 60.1767 76.16C60.6034 76.2773 60.9767 76.4373 61.2967 76.64C61.638 76.864 61.8087 77.1467 61.8087 77.488C61.8087 77.7227 61.75 77.9147 61.6327 78.064C61.526 78.2027 61.382 78.272 61.2007 78.272C61.0834 78.272 60.9607 78.2453 60.8327 78.192C60.7047 78.1387 60.5767 78.0747 60.4487 78C60.214 77.8613 59.99 77.7547 59.7767 77.68C59.5634 77.5947 59.318 77.552 59.0407 77.552C58.3794 77.552 57.8674 77.7707 57.5047 78.208C57.1527 78.6347 56.9767 79.2533 56.9767 80.064C56.9767 80.864 57.1527 81.4827 57.5047 81.92C57.8674 82.3467 58.3794 82.56 59.0407 82.56C59.3074 82.56 59.542 82.5227 59.7447 82.448C59.958 82.3627 60.1927 82.2507 60.4487 82.112C60.6087 82.016 60.7474 81.9467 60.8647 81.904C60.982 81.8507 61.0994 81.824 61.2167 81.824C61.3874 81.824 61.5314 81.8987 61.6487 82.048C61.766 82.1973 61.8247 82.384 61.8247 82.608C61.8247 82.7893 61.782 82.9493 61.6967 83.088C61.622 83.216 61.494 83.3333 61.3127 83.44C60.982 83.6533 60.598 83.824 60.1607 83.952C59.7234 84.0693 59.2754 84.128 58.8167 84.128ZM65.9412 84.096C65.6319 84.096 65.3865 84.0107 65.2052 83.84C65.0239 83.6693 64.9332 83.44 64.9332 83.152V77.68H63.0932C62.8585 77.68 62.6665 77.6107 62.5172 77.472C62.3785 77.3333 62.3092 77.152 62.3092 76.928C62.3092 76.704 62.3785 76.5227 62.5172 76.384C62.6665 76.2453 62.8585 76.176 63.0932 76.176H68.7732C69.0079 76.176 69.1945 76.2453 69.3332 76.384C69.4825 76.5227 69.5572 76.704 69.5572 76.928C69.5572 77.152 69.4825 77.3333 69.3332 77.472C69.1945 77.6107 69.0079 77.68 68.7732 77.68H66.9332V83.152C66.9332 83.44 66.8425 83.6693 66.6612 83.84C66.4799 84.0107 66.2399 84.096 65.9412 84.096ZM71.7422 84C71.4329 84.0107 71.1875 83.9307 71.0062 83.76C70.8249 83.5893 70.7342 83.3547 70.7342 83.056V77.184C70.7235 76.8747 70.8035 76.6293 70.9742 76.448C71.1449 76.2667 71.3795 76.176 71.6782 76.176H74.6382C75.5235 76.176 76.2169 76.352 76.7182 76.704C77.2302 77.056 77.4862 77.552 77.4862 78.192C77.4862 78.5867 77.3689 78.944 77.1342 79.264C76.8995 79.584 76.5635 79.8187 76.1262 79.968C76.6275 80.0853 77.0115 80.2987 77.2782 80.608C77.5555 80.9173 77.6942 81.312 77.6942 81.792C77.6942 82.4213 77.4275 82.9493 76.8942 83.376C76.3715 83.792 75.6355 84 74.6862 84H71.7422ZM74.3022 79.376C74.6862 79.376 74.9849 79.2907 75.1982 79.12C75.4115 78.9493 75.5182 78.7147 75.5182 78.416C75.5182 77.8187 75.1075 77.52 74.2862 77.52H72.7182V79.376H74.3022ZM74.3502 82.656C75.2462 82.656 75.6942 82.32 75.6942 81.648C75.6942 80.976 75.2462 80.64 74.3502 80.64H72.7182V82.656H74.3502ZM82.7367 75.984C83.8247 75.984 84.63 76.256 85.1527 76.8C85.686 77.3333 85.9527 78.1493 85.9527 79.248V83.152C85.9527 83.44 85.8674 83.6693 85.6967 83.84C85.526 84 85.2914 84.08 84.9927 84.08C84.7154 84.08 84.486 83.9947 84.3047 83.824C84.134 83.6533 84.0487 83.4293 84.0487 83.152V82.8C83.8674 83.216 83.5794 83.5413 83.1847 83.776C82.8007 84.0107 82.3527 84.128 81.8407 84.128C81.318 84.128 80.8434 84.0213 80.4167 83.808C79.99 83.5947 79.654 83.3013 79.4087 82.928C79.1634 82.5547 79.0407 82.1387 79.0407 81.68C79.0407 81.104 79.1847 80.6507 79.4727 80.32C79.7714 79.9893 80.2514 79.7493 80.9127 79.6C81.574 79.4507 82.486 79.376 83.6487 79.376H84.0487V79.008C84.0487 78.4853 83.9367 78.1067 83.7127 77.872C83.4887 77.6267 83.126 77.504 82.6247 77.504C82.3154 77.504 82.0007 77.552 81.6807 77.648C81.3607 77.7333 80.982 77.8613 80.5447 78.032C80.2674 78.1707 80.0647 78.24 79.9367 78.24C79.7447 78.24 79.5847 78.1707 79.4567 78.032C79.3394 77.8933 79.2807 77.712 79.2807 77.488C79.2807 77.3067 79.3234 77.152 79.4087 77.024C79.5047 76.8853 79.6594 76.7573 79.8727 76.64C80.246 76.4373 80.6887 76.2773 81.2007 76.16C81.7234 76.0427 82.2354 75.984 82.7367 75.984ZM82.2407 82.688C82.774 82.688 83.206 82.512 83.5367 82.16C83.878 81.7973 84.0487 81.3333 84.0487 80.768V80.432H83.7607C83.046 80.432 82.4914 80.464 82.0967 80.528C81.702 80.592 81.4194 80.704 81.2487 80.864C81.078 81.024 80.9927 81.2427 80.9927 81.52C80.9927 81.8613 81.11 82.144 81.3447 82.368C81.59 82.5813 81.8887 82.688 82.2407 82.688Z" fill="#1A1A1A"/>
</svg>
