<svg width="92" height="92" viewBox="0 0 92 92" fill="none" xmlns="http://www.w3.org/2000/svg">
<path d="M53.4094 23.2742C53.3739 23.2637 53.3395 23.2537 53.306 23.2442C53.2609 23.2312 53.205 23.2152 53.1646 23.2018C53.1513 23.1615 53.1352 23.1055 53.1223 23.0605C53.1128 23.027 53.1028 22.9925 53.0923 22.9569C52.9078 22.3349 52.5667 21.7626 52.1058 21.3016C50.577 19.7728 48.0895 19.7728 46.5608 21.3016C45.2929 22.5696 45.0681 24.4969 45.915 25.9974L41.6451 30.2673C40.1445 29.4204 38.2173 29.6452 36.9494 30.9132C35.4283 32.3726 35.4283 34.9987 36.9494 36.4581C37.4104 36.9192 37.9828 37.2603 38.6045 37.4445C38.64 37.455 38.6746 37.4651 38.7083 37.4747C38.7533 37.4876 38.8093 37.5036 38.8496 37.5169C38.8629 37.5573 38.8789 37.6132 38.8918 37.6579C38.9015 37.6917 38.9113 37.7263 38.9219 37.7618C39.7518 40.5927 43.3723 41.5119 45.4533 39.4172C46.7213 38.1492 46.946 36.2219 46.0991 34.7215L50.3691 30.4515C51.8694 31.2986 53.7968 31.0735 55.0648 29.8056C55.7976 29.0728 56.203 28.0916 56.2061 27.0429C56.2093 25.988 55.8039 24.9999 55.0647 24.2605C54.6038 23.7996 54.0313 23.4586 53.4094 23.2742ZM53.7939 28.5347C52.9809 29.3477 51.725 29.381 50.872 28.612C50.517 28.2919 49.973 28.3057 49.6348 28.6439L44.2916 33.987C43.9535 34.3253 43.9394 34.869 44.2597 35.2243C46.0255 37.3297 43.1887 40.0166 41.1793 38.1462C40.9258 37.8927 40.7461 37.5915 40.6452 37.2508L40.6195 37.1624C40.5452 36.9036 40.4436 36.5492 40.1303 36.2359C39.8172 35.9229 39.4628 35.8212 39.2041 35.747L39.1154 35.7213C38.7749 35.6204 38.4738 35.4407 38.2203 35.1872C37.3964 34.3968 37.3965 32.9745 38.2203 32.184C39.0204 31.3839 40.3039 31.3509 41.1421 32.1068C41.4972 32.427 42.0411 32.413 42.3793 32.0749L47.7225 26.7317C48.0607 26.3935 48.0748 25.8497 47.7544 25.4945C46.9854 24.6417 47.0186 23.3855 47.8316 22.5725C48.6455 21.7585 50.0209 21.7585 50.8348 22.5725C51.0883 22.8259 51.2681 23.1273 51.369 23.4677L51.3945 23.5557C51.4686 23.8146 51.5703 24.1691 51.8838 24.4828C52.1971 24.796 52.5517 24.8976 52.8106 24.9718L52.8985 24.9973C54.4179 25.4188 54.9098 27.4362 53.7939 28.5347Z" fill="#7B8E98"/>
<g clip-path="url(#clip0_20_384)">
<path d="M50.2665 7.42592C48.9605 5.90226 47.7851 4.55273 46.8709 3.42087C46.8274 3.33381 46.7403 3.29027 46.6968 3.24674C46.2179 2.85494 45.5214 2.94201 45.1296 3.42087C44.2154 4.55273 43.04 5.90226 41.734 7.42592C35.9877 14.0865 28.0211 23.3155 28.0211 31.0209C28.0211 35.9836 30.0236 40.4675 33.2886 43.7325C36.5536 46.954 41.0375 49 46.0003 49C50.9631 49 55.447 46.9975 58.7119 43.7325C61.9769 40.4675 63.9794 35.9836 63.9794 31.0209C63.9794 23.3155 56.0129 14.0865 50.2665 7.42592ZM57.1448 42.1218C54.2716 44.995 50.3536 46.7798 46.0003 46.7798C41.647 46.7798 37.729 44.995 34.8558 42.1653C32.0262 39.3357 30.2413 35.3742 30.2413 31.0209C30.2413 24.1426 37.9031 15.2619 43.4318 8.86251C44.346 7.77418 45.2167 6.77292 46.0003 5.81519C46.7839 6.77292 47.6545 7.77418 48.5687 8.81898C54.0974 15.2183 61.7593 24.0556 61.7593 30.9773C61.7593 35.3306 59.9744 39.2486 57.1448 42.1218Z" fill="#7B8E98"/>
</g>
<path d="M33.3961 72.64C33.6947 72.64 33.9347 72.736 34.1161 72.928C34.2974 73.1093 34.3881 73.3547 34.3881 73.664V83.136C34.3881 83.4347 34.3027 83.6693 34.1321 83.84C33.9614 84.0107 33.7374 84.096 33.4601 84.096C33.1827 84.096 32.9641 84.0107 32.8041 83.84C32.6441 83.6693 32.5641 83.4347 32.5641 83.136V76.544L29.8441 81.696C29.7161 81.9307 29.5774 82.1067 29.4281 82.224C29.2787 82.3307 29.1027 82.384 28.9001 82.384C28.6974 82.384 28.5214 82.3307 28.3721 82.224C28.2227 82.1173 28.0841 81.9413 27.9561 81.696L25.2201 76.624V83.136C25.2201 83.424 25.1347 83.6587 24.9641 83.84C24.8041 84.0107 24.5854 84.096 24.3081 84.096C24.0307 84.096 23.8121 84.0107 23.6521 83.84C23.4921 83.6693 23.4121 83.4347 23.4121 83.136V73.664C23.4121 73.3547 23.4974 73.1093 23.6681 72.928C23.8494 72.736 24.0894 72.64 24.3881 72.64C24.8041 72.64 25.1294 72.8693 25.3641 73.328L28.9161 80.096L32.4521 73.328C32.6867 72.8693 33.0014 72.64 33.3961 72.64ZM40.0492 75.984C41.1372 75.984 41.9425 76.256 42.4652 76.8C42.9985 77.3333 43.2652 78.1493 43.2652 79.248V83.152C43.2652 83.44 43.1799 83.6693 43.0092 83.84C42.8385 84 42.6039 84.08 42.3052 84.08C42.0279 84.08 41.7985 83.9947 41.6172 83.824C41.4465 83.6533 41.3612 83.4293 41.3612 83.152V82.8C41.1799 83.216 40.8919 83.5413 40.4972 83.776C40.1132 84.0107 39.6652 84.128 39.1532 84.128C38.6305 84.128 38.1559 84.0213 37.7292 83.808C37.3025 83.5947 36.9665 83.3013 36.7212 82.928C36.4759 82.5547 36.3532 82.1387 36.3532 81.68C36.3532 81.104 36.4972 80.6507 36.7852 80.32C37.0839 79.9893 37.5639 79.7493 38.2252 79.6C38.8865 79.4507 39.7985 79.376 40.9612 79.376H41.3612V79.008C41.3612 78.4853 41.2492 78.1067 41.0252 77.872C40.8012 77.6267 40.4385 77.504 39.9372 77.504C39.6279 77.504 39.3132 77.552 38.9932 77.648C38.6732 77.7333 38.2945 77.8613 37.8572 78.032C37.5799 78.1707 37.3772 78.24 37.2492 78.24C37.0572 78.24 36.8972 78.1707 36.7692 78.032C36.6519 77.8933 36.5932 77.712 36.5932 77.488C36.5932 77.3067 36.6359 77.152 36.7212 77.024C36.8172 76.8853 36.9719 76.7573 37.1852 76.64C37.5585 76.4373 38.0012 76.2773 38.5132 76.16C39.0359 76.0427 39.5479 75.984 40.0492 75.984ZM39.5532 82.688C40.0865 82.688 40.5185 82.512 40.8492 82.16C41.1905 81.7973 41.3612 81.3333 41.3612 80.768V80.432H41.0732C40.3585 80.432 39.8039 80.464 39.4092 80.528C39.0145 80.592 38.7319 80.704 38.5612 80.864C38.3905 81.024 38.3052 81.2427 38.3052 81.52C38.3052 81.8613 38.4225 82.144 38.6572 82.368C38.9025 82.5813 39.2012 82.688 39.5532 82.688ZM48.7698 84.128C47.9911 84.128 47.3031 83.9627 46.7058 83.632C46.1191 83.3013 45.6658 82.832 45.3458 82.224C45.0258 81.616 44.8658 80.9067 44.8658 80.096C44.8658 79.2853 45.0311 78.5707 45.3618 77.952C45.7031 77.3227 46.1778 76.8373 46.7858 76.496C47.3938 76.1547 48.0925 75.984 48.8818 75.984C49.2978 75.984 49.7138 76.0427 50.1298 76.16C50.5565 76.2773 50.9298 76.4373 51.2498 76.64C51.5911 76.864 51.7618 77.1467 51.7618 77.488C51.7618 77.7227 51.7031 77.9147 51.5858 78.064C51.4791 78.2027 51.3351 78.272 51.1538 78.272C51.0365 78.272 50.9138 78.2453 50.7858 78.192C50.6578 78.1387 50.5298 78.0747 50.4018 78C50.1671 77.8613 49.9431 77.7547 49.7298 77.68C49.5165 77.5947 49.2711 77.552 48.9938 77.552C48.3325 77.552 47.8205 77.7707 47.4578 78.208C47.1058 78.6347 46.9298 79.2533 46.9298 80.064C46.9298 80.864 47.1058 81.4827 47.4578 81.92C47.8205 82.3467 48.3325 82.56 48.9938 82.56C49.2605 82.56 49.4951 82.5227 49.6978 82.448C49.9111 82.3627 50.1458 82.2507 50.4018 82.112C50.5618 82.016 50.7005 81.9467 50.8178 81.904C50.9351 81.8507 51.0525 81.824 51.1698 81.824C51.3405 81.824 51.4845 81.8987 51.6018 82.048C51.7191 82.1973 51.7778 82.384 51.7778 82.608C51.7778 82.7893 51.7351 82.9493 51.6498 83.088C51.5751 83.216 51.4471 83.3333 51.2658 83.44C50.9351 83.6533 50.5511 83.824 50.1138 83.952C49.6765 84.0693 49.2285 84.128 48.7698 84.128ZM55.8623 78.48C55.8623 80.112 55.6596 81.36 55.2543 82.224C54.849 83.0773 54.2676 83.6853 53.5103 84.048C53.393 84.1013 53.2543 84.128 53.0943 84.128C52.8596 84.128 52.6676 84.0587 52.5183 83.92C52.369 83.7707 52.2943 83.584 52.2943 83.36C52.2943 83.2 52.337 83.0507 52.4223 82.912C52.5076 82.7627 52.6356 82.64 52.8063 82.544C53.265 82.288 53.5796 81.8613 53.7503 81.264C53.9316 80.6667 54.0223 79.7547 54.0223 78.528V77.184C54.0116 76.8747 54.0916 76.6293 54.2623 76.448C54.433 76.2667 54.6676 76.176 54.9663 76.176H59.1903C59.4996 76.1653 59.745 76.2453 59.9263 76.416C60.1076 76.5867 60.1983 76.8213 60.1983 77.12V83.152C60.1983 83.44 60.1076 83.6693 59.9263 83.84C59.745 84.0107 59.4996 84.096 59.1903 84.096C58.8916 84.096 58.6516 84.0107 58.4703 83.84C58.289 83.6693 58.1983 83.44 58.1983 83.152V77.68H55.8623V78.48ZM65.6273 75.984C66.7153 75.984 67.5206 76.256 68.0433 76.8C68.5766 77.3333 68.8433 78.1493 68.8433 79.248V83.152C68.8433 83.44 68.758 83.6693 68.5873 83.84C68.4166 84 68.182 84.08 67.8833 84.08C67.606 84.08 67.3766 83.9947 67.1953 83.824C67.0246 83.6533 66.9393 83.4293 66.9393 83.152V82.8C66.758 83.216 66.47 83.5413 66.0753 83.776C65.6913 84.0107 65.2433 84.128 64.7313 84.128C64.2086 84.128 63.734 84.0213 63.3073 83.808C62.8806 83.5947 62.5446 83.3013 62.2993 82.928C62.054 82.5547 61.9313 82.1387 61.9313 81.68C61.9313 81.104 62.0753 80.6507 62.3633 80.32C62.662 79.9893 63.142 79.7493 63.8033 79.6C64.4646 79.4507 65.3766 79.376 66.5393 79.376H66.9393V79.008C66.9393 78.4853 66.8273 78.1067 66.6033 77.872C66.3793 77.6267 66.0166 77.504 65.5153 77.504C65.206 77.504 64.8913 77.552 64.5713 77.648C64.2513 77.7333 63.8726 77.8613 63.4353 78.032C63.158 78.1707 62.9553 78.24 62.8273 78.24C62.6353 78.24 62.4753 78.1707 62.3473 78.032C62.23 77.8933 62.1713 77.712 62.1713 77.488C62.1713 77.3067 62.214 77.152 62.2993 77.024C62.3953 76.8853 62.55 76.7573 62.7633 76.64C63.1366 76.4373 63.5793 76.2773 64.0913 76.16C64.614 76.0427 65.126 75.984 65.6273 75.984ZM65.1313 82.688C65.6646 82.688 66.0966 82.512 66.4273 82.16C66.7686 81.7973 66.9393 81.3333 66.9393 80.768V80.432H66.6513C65.9366 80.432 65.382 80.464 64.9873 80.528C64.5926 80.592 64.31 80.704 64.1393 80.864C63.9686 81.024 63.8833 81.2427 63.8833 81.52C63.8833 81.8613 64.0006 82.144 64.2353 82.368C64.4806 82.5813 64.7793 82.688 65.1313 82.688Z" fill="#1A1A1A"/>
<defs>
<clipPath id="clip0_20_384">
<rect width="46" height="46" fill="white" transform="translate(23 3)"/>
</clipPath>
</defs>
</svg>
