<svg width="92" height="92" viewBox="0 0 92 92" fill="none" xmlns="http://www.w3.org/2000/svg">
<g clip-path="url(#clip0_20_374)">
<path d="M37.2517 20.6973C35.0213 20.6973 33.2067 22.5119 33.2067 24.7423C33.4289 30.1086 41.0753 30.107 41.2967 24.7423C41.2967 22.5119 39.4821 20.6973 37.2517 20.6973ZM37.2517 26.9895C36.0125 26.9895 35.0044 25.9814 35.0044 24.7423C35.1279 21.7611 39.3759 21.762 39.4989 24.7423C39.4989 25.9814 38.4909 26.9895 37.2517 26.9895Z" fill="#7B8E98"/>
<path d="M64.5288 38.2256H61.1861C67.9437 29.9582 63.24 17.1881 52.8599 15.1469V13.7757C55.3382 13.7757 57.3544 11.7595 57.3544 9.28125C57.3704 5.60389 53.0846 3.46885 50.1632 5.68614C47.2408 3.46867 42.9561 5.60425 42.9721 9.28125C42.9721 11.7595 44.9883 13.7756 47.4666 13.7756V15.0731C45.0811 15.4937 42.8312 16.5123 40.9317 18.0477C38.6673 16.7292 35.4308 16.8145 33.2446 18.2389C26.6012 16.5198 21.5479 24.189 25.736 29.6111C23.989 31.9902 23 34.8929 23 37.926C23 41.0651 25.5538 43.6189 28.6929 43.6189H49.9667C53.6059 43.6189 56.9338 42.2601 59.4697 40.0233H64.5288C68.1071 40.1718 68.1044 45.2695 64.5288 45.4167H49.9667C48.774 45.4641 48.7749 47.1674 49.9667 47.2144H64.5288C70.4927 46.9669 70.4881 38.4709 64.5288 38.2256ZM48.9161 12.053C48.6965 11.8826 48.4103 11.8237 48.1414 11.8929C46.4701 12.3455 44.7458 11.0168 44.7699 9.28125C44.7695 6.81173 47.8594 5.64578 49.4893 7.49812C49.8277 7.89974 50.4987 7.89974 50.8371 7.49812C52.4675 5.64587 55.5569 6.81173 55.5565 9.28134C55.5806 11.0166 53.8562 12.3459 52.185 11.893C51.916 11.8238 51.6299 11.8828 51.4103 12.0531C51.1906 12.2233 51.062 12.4856 51.062 12.7635V14.8958C50.4697 14.8508 49.8608 14.8423 49.2643 14.8716V12.7634C49.2644 12.4855 49.1358 12.2232 48.9161 12.053ZM26.0155 25.1918C26.0148 22.2104 28.4492 19.7858 31.4305 19.7985C30.0404 21.3963 29.335 23.7455 29.7064 25.9439C28.6771 26.5807 27.7459 27.3388 26.9274 28.193C26.3354 27.3094 26.0155 26.2672 26.0155 25.1918ZM28.6929 41.8211C26.5451 41.8211 24.7978 40.0738 24.7978 37.926C24.7978 33.8429 26.8547 30.0298 30.2272 27.7477C30.3464 28.0266 30.4823 28.2988 30.6347 28.5625C30.8829 28.9924 31.4326 29.1397 31.8626 28.8915C32.2925 28.6433 32.4399 28.0935 32.1916 27.6636C29.9345 23.8347 32.8039 18.8616 37.2517 18.8994C42.4182 18.8876 45.0497 25.2374 41.3831 28.8737C40.5728 29.7494 41.7797 30.9549 42.6544 30.1449C45.7314 27.1869 45.5637 21.9194 42.4482 19.1457C50.6397 12.9715 62.5969 18.9645 62.5511 29.2368C62.5511 36.1757 56.9057 41.8211 49.9667 41.8211H28.6929Z" fill="#7B8E98"/>
<path d="M29.0618 33.1814H29.0612C28.5648 33.1814 28.1626 33.5838 28.1626 34.0803C28.2101 35.2725 29.9135 35.2725 29.9607 34.0803C29.9607 33.5838 29.5582 33.1814 29.0618 33.1814Z" fill="#7B8E98"/>
<path d="M52.86 10.1802C54.0527 10.1327 54.0518 8.4294 52.86 8.38239H52.8594C51.6668 8.43003 51.6683 10.1332 52.86 10.1802Z" fill="#7B8E98"/>
<path d="M47.4669 8.38239H47.4662C46.9698 8.38239 46.5676 8.78482 46.5676 9.28127C46.6151 10.4735 48.3186 10.4735 48.3658 9.28127C48.3658 8.78482 47.9633 8.38239 47.4669 8.38239Z" fill="#7B8E98"/>
</g>
<path d="M20.752 73.248C20.912 73.024 21.0773 72.864 21.248 72.768C21.4293 72.672 21.68 72.624 22 72.624C22.3093 72.624 22.5493 72.7147 22.72 72.896C22.8907 73.0667 22.976 73.3067 22.976 73.616V83.072C22.976 83.3813 22.88 83.632 22.688 83.824C22.5067 84.0053 22.2667 84.096 21.968 84.096C21.6587 84.096 21.4133 84.0053 21.232 83.824C21.0507 83.632 20.96 83.3813 20.96 83.072V75.712L15.6 83.28C15.376 83.6107 15.1627 83.8293 14.96 83.936C14.7573 84.0427 14.5013 84.096 14.192 84.096C13.8827 84.096 13.6427 84.0107 13.472 83.84C13.3013 83.6587 13.216 83.4133 13.216 83.104V73.648C13.216 73.3387 13.3067 73.0933 13.488 72.912C13.68 72.72 13.9253 72.624 14.224 72.624C14.5333 72.624 14.7787 72.72 14.96 72.912C15.152 73.0933 15.248 73.3387 15.248 73.648V80.992L20.752 73.248ZM26.1871 84.096C25.8885 84.096 25.6485 84.0107 25.4671 83.84C25.2858 83.6693 25.1951 83.44 25.1951 83.152V77.184C25.1845 76.8747 25.2645 76.6293 25.4351 76.448C25.6058 76.2667 25.8405 76.176 26.1391 76.176H30.0911C30.3258 76.176 30.5125 76.2453 30.6511 76.384C30.8005 76.5227 30.8751 76.704 30.8751 76.928C30.8751 77.152 30.8005 77.3333 30.6511 77.472C30.5125 77.6107 30.3258 77.68 30.0911 77.68H27.1951V83.152C27.1951 83.44 27.1045 83.6693 26.9231 83.84C26.7418 84.0107 26.4965 84.096 26.1871 84.096ZM36.5673 75.984C37.2393 75.984 37.8366 76.1547 38.3593 76.496C38.8926 76.8373 39.3033 77.3227 39.5913 77.952C39.8899 78.5707 40.0393 79.2853 40.0393 80.096C40.0393 80.9067 39.8899 81.616 39.5913 82.224C39.3033 82.832 38.8979 83.3013 38.3753 83.632C37.8526 83.9627 37.2499 84.128 36.5673 84.128C36.0126 84.128 35.5166 84.0107 35.0793 83.776C34.6419 83.5413 34.3059 83.216 34.0713 82.8V86.064C34.0713 86.3413 33.9806 86.56 33.7993 86.72C33.6179 86.88 33.3779 86.96 33.0793 86.96C32.7806 86.96 32.5353 86.8747 32.3433 86.704C32.1619 86.5333 32.0713 86.3093 32.0713 86.032V76.96C32.0713 76.672 32.1566 76.4427 32.3273 76.272C32.5086 76.1013 32.7486 76.016 33.0473 76.016C33.3459 76.016 33.5859 76.1013 33.7673 76.272C33.9486 76.4427 34.0393 76.672 34.0393 76.96V77.36C34.2739 76.9227 34.6099 76.5867 35.0473 76.352C35.4953 76.1067 36.0019 75.984 36.5673 75.984ZM36.0393 82.576C36.6686 82.576 37.1593 82.3627 37.5113 81.936C37.8633 81.4987 38.0393 80.8853 38.0393 80.096C38.0393 79.2853 37.8633 78.656 37.5113 78.208C37.1593 77.76 36.6686 77.536 36.0393 77.536C35.3993 77.536 34.9033 77.7547 34.5513 78.192C34.2099 78.6293 34.0393 79.2533 34.0393 80.064C34.0393 80.864 34.2099 81.4827 34.5513 81.92C34.9033 82.3573 35.3993 82.576 36.0393 82.576ZM47.0116 76.592C47.097 76.4 47.209 76.2613 47.3476 76.176C47.497 76.08 47.657 76.032 47.8276 76.032C48.073 76.032 48.2916 76.1173 48.4836 76.288C48.6863 76.448 48.7876 76.6507 48.7876 76.896C48.7876 77.0133 48.7556 77.136 48.6916 77.264L44.3236 86.416C44.1423 86.7787 43.8596 86.96 43.4756 86.96C43.2303 86.96 43.0116 86.88 42.8196 86.72C42.6383 86.5707 42.5476 86.3787 42.5476 86.144C42.5476 86.0267 42.5796 85.8933 42.6436 85.744L43.7316 83.456L40.7556 77.264C40.7023 77.1573 40.6756 77.0347 40.6756 76.896C40.6756 76.6507 40.777 76.4427 40.9796 76.272C41.193 76.1013 41.433 76.016 41.6996 76.016C41.881 76.016 42.0463 76.064 42.1956 76.16C42.345 76.2453 42.4623 76.384 42.5476 76.576L44.7876 81.52L47.0116 76.592ZM50.9375 84C50.6282 84.0107 50.3828 83.9307 50.2015 83.76C50.0202 83.5893 49.9295 83.3547 49.9295 83.056V76.96C49.9295 76.672 50.0148 76.4427 50.1855 76.272C50.3668 76.1013 50.6068 76.016 50.9055 76.016C51.2148 76.016 51.4602 76.1013 51.6415 76.272C51.8228 76.4427 51.9135 76.672 51.9135 76.96V82.496H54.3455V76.96C54.3455 76.672 54.4255 76.4427 54.5855 76.272C54.7562 76.1013 54.9908 76.016 55.2895 76.016C55.5988 76.016 55.8442 76.1013 56.0255 76.272C56.2068 76.4427 56.2975 76.672 56.2975 76.96V82.496H58.7295V76.96C58.7295 76.672 58.8148 76.4427 58.9855 76.272C59.1668 76.1013 59.4068 76.016 59.7055 76.016C60.0148 76.016 60.2602 76.1013 60.4415 76.272C60.6228 76.4427 60.7135 76.672 60.7135 76.96V82.992C60.7135 83.3013 60.6282 83.5467 60.4575 83.728C60.2868 83.9093 60.0575 84 59.7695 84H50.9375ZM67.3191 79.712C67.6925 79.8507 67.9911 80.0373 68.2151 80.272C68.4498 80.5067 68.7218 80.9013 69.0311 81.456L69.7351 82.672C69.8311 82.8427 69.8791 83.008 69.8791 83.168C69.8791 83.424 69.7778 83.6427 69.5751 83.824C69.3831 83.9947 69.1538 84.08 68.8871 84.08C68.5245 84.08 68.2471 83.9093 68.0551 83.568L67.0471 81.776C66.8231 81.4027 66.6045 81.1413 66.3911 80.992C66.1778 80.8427 65.8685 80.768 65.4631 80.768H64.8391V83.136C64.8391 83.4347 64.7485 83.6693 64.5671 83.84C64.3858 84.0107 64.1405 84.096 63.8311 84.096C63.5218 84.096 63.2765 84.0107 63.0951 83.84C62.9245 83.6693 62.8391 83.4347 62.8391 83.136V76.96C62.8391 76.672 62.9298 76.4427 63.1111 76.272C63.2925 76.1013 63.5325 76.016 63.8311 76.016C64.1405 76.016 64.3858 76.1013 64.5671 76.272C64.7485 76.4427 64.8391 76.672 64.8391 76.96V79.28H65.5591L67.8471 76.432C68.0605 76.1547 68.3111 76.016 68.5991 76.016C68.8231 76.016 69.0151 76.096 69.1751 76.256C69.3351 76.416 69.4151 76.608 69.4151 76.832C69.4151 77.056 69.3298 77.2747 69.1591 77.488L67.3191 79.712ZM76.6775 76.784C76.8908 76.4853 77.0828 76.2827 77.2535 76.176C77.4348 76.0693 77.6802 76.016 77.9895 76.016C78.2988 76.016 78.5442 76.1013 78.7255 76.272C78.9175 76.4427 79.0135 76.672 79.0135 76.96V83.12C79.0135 83.408 78.9228 83.6427 78.7415 83.824C78.5708 84.0053 78.3468 84.096 78.0695 84.096C77.7815 84.096 77.5468 84.0053 77.3655 83.824C77.1948 83.6427 77.1095 83.408 77.1095 83.12V78.608L73.7175 83.36C73.5148 83.648 73.3175 83.8453 73.1255 83.952C72.9442 84.048 72.7148 84.096 72.4375 84.096C72.1282 84.096 71.8828 84.0107 71.7015 83.84C71.5202 83.6693 71.4295 83.4347 71.4295 83.136V76.976C71.4295 76.688 71.5148 76.4587 71.6855 76.288C71.8668 76.1067 72.1015 76.016 72.3895 76.016C72.6668 76.016 72.8908 76.1067 73.0615 76.288C73.2428 76.4587 73.3335 76.688 73.3335 76.976V81.456L76.6775 76.784Z" fill="#1A1A1A"/>
<defs>
<clipPath id="clip0_20_374">
<rect width="46" height="46" fill="white" transform="translate(23 3)"/>
</clipPath>
</defs>
</svg>
