<svg width="92" height="92" viewBox="0 0 92 92" fill="none" xmlns="http://www.w3.org/2000/svg">
<g clip-path="url(#clip0_20_325)">
<path d="M51.6739 19.7482C51.6908 19.7525 53.3838 20.1894 55.0336 21.3942M51.6739 19.7482L52.0958 48.4731C50.4674 46.8429 48.3023 45.9455 45.9997 45.9455C43.6971 45.9455 41.5321 46.8429 39.904 48.4731C39.2025 49.1753 38.0647 49.1757 37.3628 48.4745C36.6605 47.7733 36.6598 46.6355 37.3614 45.9332C38.1187 45.1752 38.9589 44.5294 39.8602 44.0033C39.8524 41.3389 39.7679 40.1748 39.6657 39.41C39.5913 39.2855 39.531 39.15 39.4874 39.0047C38.8052 36.7309 36.797 36.3606 34.035 36.0858C33.3851 36.0212 32.7709 35.9602 32.2287 35.8412C32.0146 35.7945 31.71 35.7496 31.3878 35.7022M51.6739 19.7482C50.7099 19.5127 50.1224 18.5413 50.3579 17.5772C50.5934 16.6132 51.5687 16.0236 52.5331 16.2587C52.6257 16.2812 54.8262 16.8304 57.0337 18.4058M51.6739 19.7482L57.0337 18.4058M55.0336 21.3942C57.0793 22.8882 58.1427 24.8743 58.1947 27.2965M55.0336 21.3942L55.2695 21.0712C57.4105 22.6348 58.5397 24.7344 58.5946 27.2876M55.0336 21.3942L55.2695 21.0712C53.5599 19.8227 51.8102 19.37 51.771 19.3602L51.7689 19.3597C51.0203 19.1768 50.5632 18.4225 50.7464 17.6722C50.9293 16.9237 51.6874 16.4642 52.4383 16.6473L52.4388 16.6474C52.5092 16.6645 54.6534 17.1985 56.8013 18.7314M58.1947 27.2965C58.1951 27.3165 58.1969 27.336 58.1986 27.3554C58.1994 27.365 58.2003 27.3746 58.201 27.3843C57.5861 30.2024 56.8961 32.0292 56.6606 32.6107C55.9523 32.6938 55.1898 32.8106 54.4209 33.0157C54.4044 33.0901 54.3873 33.1639 54.3695 33.2372L53.9808 33.1431L53.8613 32.7613C53.934 32.7386 54.0068 32.7167 54.0794 32.6956C54.3721 31.2175 54.3553 29.5712 53.4382 27.7851M58.1947 27.2965L58.5945 27.2871C58.5945 27.2873 58.5946 27.2874 58.5946 27.2876M58.1947 27.2965L58.5946 27.288C58.5946 27.2878 58.5946 27.2877 58.5946 27.2876M53.4382 27.7851C52.9848 26.9021 51.9017 26.5539 51.0187 27.0074C50.1361 27.4604 49.7879 28.5438 50.2414 29.4265C50.9952 30.8949 50.6271 32.099 49.9118 34.1008M53.4382 27.7851L53.0824 27.9678C53.0824 27.9678 53.0824 27.9678 53.0824 27.9678M53.4382 27.7851L53.0824 27.9678M49.9118 34.1008L49.909 34.1088C49.5445 35.1297 49.1677 36.185 49.0183 37.364C48.9839 37.6325 48.9449 37.8585 48.9035 38.0975M49.9118 34.1008L50.2885 34.2354C50.2885 34.2354 50.2885 34.2353 50.2885 34.2353M49.9118 34.1008L50.2885 34.2353M48.9035 38.0975C48.7629 38.91 48.6185 39.7455 48.5658 42.2125C48.591 42.2176 48.6161 42.2229 48.6412 42.2282L48.5582 42.6195L48.1582 42.6131C48.1586 42.5892 48.159 42.5654 48.1594 42.5418C47.4536 42.4163 46.7317 42.3517 46.0001 42.3517C45.2682 42.3517 44.5462 42.4163 43.8404 42.5418C43.8408 42.5654 43.8412 42.5892 43.8416 42.6131L43.4416 42.6195L43.3586 42.2282C43.3837 42.2229 43.4089 42.2176 43.434 42.2125C43.3814 39.7455 43.2369 38.91 43.0963 38.0975M48.9035 38.0975L49.2976 38.1658M48.9035 38.0975L49.2977 38.1657L49.2976 38.1658M43.0963 38.0975C43.0549 37.8585 43.0159 37.6325 42.9815 37.3636C42.84 36.2469 42.5074 35.2075 42.1857 34.2021L42.1842 34.1973M43.0963 38.0975L42.7022 38.1658M43.0963 38.0975L42.7022 38.1657L42.7022 38.1658M42.1842 34.1973C41.5268 32.1443 41.1618 30.8184 41.9083 29.4823C42.3926 28.6161 42.0827 27.5215 41.2166 27.0372M42.1842 34.1973L41.8032 34.3192M42.1842 34.1973L41.8032 34.3193C41.8032 34.3193 41.8032 34.3193 41.8032 34.3192M41.2166 27.0372C40.3501 26.5532 39.2555 26.8631 38.7711 27.7293C37.7947 29.4767 37.7752 31.1816 38.0657 32.7394C38.1382 32.7615 38.2108 32.7845 38.2833 32.8084L38.1584 33.1883L37.7682 33.2763C37.7516 33.203 37.7356 33.1292 37.7202 33.055C36.9032 32.8253 36.0902 32.6988 35.3381 32.6103C35.1033 32.0355 34.4127 30.2217 33.7974 27.4043C33.7982 27.3941 33.7991 27.3839 33.8001 27.3738C33.8024 27.3482 33.8047 27.3226 33.8052 27.2965C33.8571 24.8743 34.9205 22.8882 36.9665 21.3942M41.2166 27.0372L41.0214 27.3863C41.0214 27.3863 41.0215 27.3864 41.0215 27.3864M41.2166 27.0372L41.0215 27.3864M36.9665 21.3942C38.6101 20.1936 40.2971 19.7556 40.3259 19.7482C41.2861 19.5099 41.8736 18.5399 41.6384 17.5779C41.4033 16.6142 40.4312 16.0232 39.4667 16.2587C39.3741 16.2812 37.174 16.8304 34.9661 18.4058M36.9665 21.3942L36.7307 21.0712C36.7306 21.0712 36.7306 21.0712 36.7306 21.0712M36.9665 21.3942L36.7306 21.0712M34.9661 18.4058C34.3077 18.8758 33.7152 19.3877 33.1897 19.9378C33.1972 20.0673 33.2052 20.196 33.2136 20.3239L32.8144 20.3501L32.5121 20.0882C32.5996 19.9872 32.6891 19.8874 32.7806 19.7887C32.7394 19.0355 32.7131 18.2548 32.7053 17.4481C32.7014 17.0389 32.7039 16.6279 32.7102 16.2155C35.0277 13.1153 38.0167 12.0464 38.3869 11.9236L38.2593 11.5497C38.2578 11.5462 38.2577 11.5462 38.2577 11.5463L38.2573 11.5464L38.2567 11.5467L38.2558 11.5471L38.2597 11.5452C38.2612 11.5445 38.2631 11.5437 38.2653 11.5426M34.9661 18.4058L35.1984 18.7314M34.9661 18.4058L35.1985 18.7314C35.1985 18.7314 35.1985 18.7314 35.1984 18.7314M38.2653 11.5426C38.2921 11.5337 38.3083 11.5288 38.3128 11.5274L38.3337 11.5994L38.3149 11.5267L38.3244 11.5243L38.4298 11.9073C38.5748 11.839 39.746 11.2361 39.4667 9.68921C39.1692 8.04114 37.4175 8.46158 37.4175 8.46158M38.2653 11.5426C38.2706 11.54 38.2781 11.5363 38.2873 11.5315C38.3134 11.5178 38.3535 11.4954 38.4022 11.4635C38.5004 11.3992 38.6288 11.2994 38.7488 11.1593C38.9797 10.8899 39.1981 10.453 39.0731 9.76027C39.0122 9.42295 38.8839 9.22134 38.7481 9.09452C38.6086 8.96428 38.4343 8.88832 38.2475 8.84864C38.0594 8.80871 37.8724 8.80866 37.7281 8.82033C37.6571 8.82608 37.5993 8.83442 37.5607 8.84102C37.5414 8.84431 37.5271 8.84713 37.5185 8.84892L37.5169 8.84925M38.2653 11.5426C37.8435 11.6819 34.7726 12.7884 32.3898 15.9761L32.3122 16.0798L32.3102 16.2094C32.3039 16.6242 32.3014 17.0386 32.3053 17.4519L32.3053 17.452C32.3152 18.4687 32.3541 19.4444 32.4153 20.3763L32.4791 21.3482L33.1168 20.612C33.7084 19.929 34.4026 19.2995 35.1984 18.7314M37.4175 8.46158C37.3015 8.49502 35.5763 9.00982 33.5116 10.4745C33.4964 10.5981 33.4816 10.7217 33.4672 10.8452L33.0699 10.7989L32.8278 10.4805C32.9313 10.4018 33.0342 10.3255 33.1364 10.2514C33.3484 8.57182 33.6377 6.87763 34.0048 5.1763M37.4175 8.46158C37.5109 8.85053 37.5107 8.85057 37.5105 8.85061L37.5102 8.85068L37.5169 8.84925M37.4175 8.46158L37.5283 8.84594C37.5258 8.84666 37.522 8.84776 37.5169 8.84925M34.0048 5.1763C34.214 4.20627 33.5974 3.25027 32.6274 3.04075M34.0048 5.1763L33.6138 5.09192C33.6138 5.09194 33.6138 5.09197 33.6138 5.09199L34.0048 5.1763ZM32.6274 3.04075C31.658 2.83158 30.7013 3.44821 30.4922 4.41824C29.5358 8.84903 29.0715 13.2444 29.1119 17.4821C29.1729 23.9153 30.3207 28.8222 31.1872 31.6298C31.253 31.6411 31.3191 31.652 31.3855 31.6626L31.3222 32.0576L30.9415 32.1803C30.9204 32.1151 30.8992 32.0486 30.8778 31.9808C28.6987 31.5719 26.5938 30.6183 26.5938 25.9103C26.5938 24.9178 25.789 24.1134 24.7969 24.1134C23.8044 24.1134 23 24.9178 23 25.9103C23 29.5332 24.0641 32.1955 26.1624 33.8232M32.6274 3.04075L32.5429 3.43174C32.5429 3.43174 32.543 3.43175 32.543 3.43175L32.6274 3.04075ZM26.1624 33.8232C27.9286 35.1928 30.0098 35.4993 31.3873 35.7021L31.3878 35.7022M26.1624 33.8232L26.4076 33.5072C26.4076 33.5072 26.4076 33.5071 26.4076 33.5071L26.1624 33.8232ZM31.3878 35.7022L31.4461 35.3065L31.446 35.3065L31.3878 35.7022ZM37.5169 8.84925L59.4567 3.43177C58.7027 3.59474 58.2234 4.33792 58.386 5.09199M35.1984 18.7314C37.3467 17.1985 39.4906 16.6645 39.561 16.6474L39.5616 16.6473C40.3114 16.4642 41.0671 16.9237 41.2498 17.6728L41.2499 17.6729C41.4326 18.4207 40.976 19.1748 40.2295 19.36L40.2266 19.3607C40.1778 19.3733 38.434 19.8269 36.7306 21.0712M36.7306 21.0712C34.5892 22.6349 33.46 24.7346 33.4052 27.288L33.4052 27.2888C33.405 27.301 33.4043 27.3082 33.4029 27.3232C33.4019 27.3341 33.4005 27.3491 33.3987 27.373L33.394 27.4319L33.4066 27.4896C34.0275 30.3328 34.7257 32.1687 34.9678 32.7616L35.057 32.98L35.2914 33.0076C36.1668 33.1105 37.1077 33.2639 38.0334 33.5683L38.7038 33.7888L38.5486 33.1004C38.1825 31.4767 38.1153 29.7231 39.1203 27.9245M39.1203 27.9245C39.4968 27.2511 40.3479 27.0101 41.0215 27.3864M39.1203 27.9245L38.7718 27.7297L39.1203 27.9244C39.1203 27.9244 39.1203 27.9245 39.1203 27.9245ZM41.0215 27.3864C41.6949 27.763 41.9356 28.6139 41.5592 29.2871L41.5591 29.2872C40.7145 30.799 41.1569 32.3005 41.8032 34.3192M41.8032 34.3192C42.127 35.3311 42.4483 36.3377 42.5847 37.4139L42.5848 37.4144C42.6204 37.693 42.6608 37.9269 42.7022 38.1658M42.7022 38.1658L42.7037 38.1747C42.8476 39.0061 42.9972 39.8704 43.0417 42.626L43.0495 43.1116L43.5247 43.0108C44.3292 42.84 45.1577 42.7517 46.0001 42.7517C46.8421 42.7517 47.6706 42.84 48.4751 43.0108L48.9503 43.1116L48.9581 42.626C49.0026 39.8704 49.1522 39.0061 49.2961 38.1747L49.2976 38.1658M49.2976 38.1658C49.339 37.9269 49.3794 37.693 49.415 37.4148L49.4151 37.4143C49.5587 36.282 49.9214 35.2638 50.2885 34.2353M50.2885 34.2353C50.9976 32.2507 51.4397 30.8849 50.5972 29.2438L50.5972 29.2437C50.2447 28.5575 50.5154 27.7154 51.2014 27.3632L51.2014 27.3632C51.8879 27.0107 52.7298 27.2813 53.0824 27.9678M53.0824 27.9678C54.0362 29.8255 53.9625 31.5191 53.592 33.0489L53.4256 33.7359L54.1002 33.5248C54.9823 33.2488 55.8745 33.1057 56.7073 33.008L56.9425 32.9803L57.0314 32.7608C57.274 32.1616 57.9714 30.3131 58.5918 27.4695L58.6041 27.4131L58.5999 27.3554C58.5978 27.3262 58.5966 27.3139 58.5958 27.3062C58.5951 27.2992 58.5948 27.2962 58.5946 27.2876M56.8013 18.7314C57.5969 19.2995 58.2908 19.9287 58.8825 20.6111L59.5194 21.3457L59.5838 20.3756C59.6457 19.4431 59.6846 18.4676 59.6945 17.452V17.4519C59.6984 17.0386 59.6959 16.6243 59.6899 16.2098L59.6881 16.08L59.6104 15.976C57.0858 12.5993 53.7876 11.5568 53.6959 11.53M56.8013 18.7314L57.0337 18.4058M56.8013 18.7314C56.8013 18.7314 56.8013 18.7314 56.8013 18.7314L57.0337 18.4058M53.6959 11.53C52.9546 11.3158 52.5274 10.5412 52.7415 9.80028L52.7415 9.80024C52.9557 9.05891 53.7303 8.63171 54.4712 8.84585L54.4715 8.84594C54.5662 8.8732 56.4848 9.4427 58.6878 11.1174L59.436 11.6861L59.3272 10.7526C59.1092 8.88101 58.7957 6.99073 58.386 5.09199M53.6959 11.53C53.6957 11.5299 53.6955 11.5299 53.6953 11.5298L53.5849 11.9143M53.6959 11.53L53.5849 11.9143M58.386 5.09199C58.386 5.09197 58.386 5.09194 58.386 5.09192L57.995 5.1763L58.386 5.09199ZM53.5849 11.9143C53.6179 11.9237 56.8323 12.9282 59.29 16.2155L53.5849 11.9143ZM60.5542 35.3098C60.2366 35.3547 59.9152 35.4001 59.6855 35.4505L59.4569 3.43174C60.2113 3.26921 60.9541 3.74852 61.117 4.50261C62.0672 8.90643 62.528 13.2722 62.488 17.4783C62.4242 24.2098 61.162 29.2539 60.2945 31.9421L60.0955 32.5589L60.7361 32.4603C61.7412 32.3055 62.9591 32.0532 63.8973 31.3232C65.2257 30.2901 65.806 28.4631 65.806 25.9103C65.806 25.1391 66.4313 24.5137 67.2029 24.5137C67.9746 24.5137 68.5998 25.1391 68.5998 25.9103C68.5998 29.4796 67.5662 32.009 65.6125 33.5285C63.9442 34.8258 61.9642 35.1112 60.5801 35.3061L60.5799 35.3062L60.5542 35.3098Z" fill="#7B8E98" stroke="white" stroke-width="0.8"/>
</g>
<path d="M30.7634 84.096C30.4541 84.096 30.2034 84.0053 30.0114 83.824C29.8301 83.632 29.7394 83.376 29.7394 83.056V73.696C29.7394 73.3867 29.8248 73.1467 29.9954 72.976C30.1768 72.8053 30.4221 72.72 30.7314 72.72H34.6674C35.8728 72.72 36.8114 73.024 37.4834 73.632C38.1554 74.2293 38.4914 75.072 38.4914 76.16C38.4914 77.248 38.1554 78.096 37.4834 78.704C36.8114 79.312 35.8728 79.616 34.6674 79.616H31.8034V83.056C31.8034 83.376 31.7074 83.632 31.5154 83.824C31.3341 84.0053 31.0834 84.096 30.7634 84.096ZM34.4114 78.032C35.8301 78.032 36.5394 77.4133 36.5394 76.176C36.5394 74.9387 35.8301 74.32 34.4114 74.32H31.8034V78.032H34.4114ZM43.4127 84.128C42.6127 84.128 41.9087 83.9627 41.3007 83.632C40.7034 83.3013 40.2394 82.8267 39.9087 82.208C39.578 81.5893 39.4127 80.8693 39.4127 80.048C39.4127 79.2267 39.578 78.512 39.9087 77.904C40.2394 77.2853 40.7034 76.8107 41.3007 76.48C41.9087 76.1493 42.6127 75.984 43.4127 75.984C44.2127 75.984 44.9114 76.1493 45.5087 76.48C46.1167 76.8107 46.5807 77.2853 46.9007 77.904C47.2314 78.512 47.3967 79.2267 47.3967 80.048C47.3967 80.8693 47.2314 81.5893 46.9007 82.208C46.5807 82.8267 46.1167 83.3013 45.5087 83.632C44.9114 83.9627 44.2127 84.128 43.4127 84.128ZM43.3967 82.576C44.0474 82.576 44.5434 82.3627 44.8847 81.936C45.226 81.5093 45.3967 80.88 45.3967 80.048C45.3967 79.2267 45.226 78.6027 44.8847 78.176C44.5434 77.7387 44.0527 77.52 43.4127 77.52C42.7727 77.52 42.2767 77.7387 41.9247 78.176C41.5834 78.6027 41.4127 79.2267 41.4127 80.048C41.4127 80.88 41.5834 81.5093 41.9247 81.936C42.266 82.3627 42.7567 82.576 43.3967 82.576ZM49.9918 84.096C49.6931 84.096 49.4531 84.0107 49.2718 83.84C49.0905 83.6693 48.9998 83.44 48.9998 83.152V77.184C48.9891 76.8747 49.0691 76.6293 49.2398 76.448C49.4105 76.2667 49.6451 76.176 49.9438 76.176H53.8958C54.1305 76.176 54.3171 76.2453 54.4558 76.384C54.6051 76.5227 54.6798 76.704 54.6798 76.928C54.6798 77.152 54.6051 77.3333 54.4558 77.472C54.3171 77.6107 54.1305 77.68 53.8958 77.68H50.9998V83.152C50.9998 83.44 50.9091 83.6693 50.7278 83.84C50.5465 84.0107 50.3011 84.096 49.9918 84.096ZM59.2679 75.984C60.3559 75.984 61.1613 76.256 61.6839 76.8C62.2173 77.3333 62.4839 78.1493 62.4839 79.248V83.152C62.4839 83.44 62.3986 83.6693 62.2279 83.84C62.0573 84 61.8226 84.08 61.5239 84.08C61.2466 84.08 61.0173 83.9947 60.8359 83.824C60.6653 83.6533 60.5799 83.4293 60.5799 83.152V82.8C60.3986 83.216 60.1106 83.5413 59.7159 83.776C59.3319 84.0107 58.8839 84.128 58.3719 84.128C57.8493 84.128 57.3746 84.0213 56.9479 83.808C56.5213 83.5947 56.1853 83.3013 55.9399 82.928C55.6946 82.5547 55.5719 82.1387 55.5719 81.68C55.5719 81.104 55.7159 80.6507 56.0039 80.32C56.3026 79.9893 56.7826 79.7493 57.4439 79.6C58.1053 79.4507 59.0173 79.376 60.1799 79.376H60.5799V79.008C60.5799 78.4853 60.4679 78.1067 60.2439 77.872C60.0199 77.6267 59.6573 77.504 59.1559 77.504C58.8466 77.504 58.5319 77.552 58.2119 77.648C57.8919 77.7333 57.5133 77.8613 57.0759 78.032C56.7986 78.1707 56.5959 78.24 56.4679 78.24C56.2759 78.24 56.1159 78.1707 55.9879 78.032C55.8706 77.8933 55.8119 77.712 55.8119 77.488C55.8119 77.3067 55.8546 77.152 55.9399 77.024C56.0359 76.8853 56.1906 76.7573 56.4039 76.64C56.7773 76.4373 57.2199 76.2773 57.7319 76.16C58.2546 76.0427 58.7666 75.984 59.2679 75.984ZM58.7719 82.688C59.3053 82.688 59.7373 82.512 60.0679 82.16C60.4093 81.7973 60.5799 81.3333 60.5799 80.768V80.432H60.2919C59.5773 80.432 59.0226 80.464 58.6279 80.528C58.2333 80.592 57.9506 80.704 57.7799 80.864C57.6093 81.024 57.5239 81.2427 57.5239 81.52C57.5239 81.8613 57.6413 82.144 57.8759 82.368C58.1213 82.5813 58.4199 82.688 58.7719 82.688Z" fill="#1A1A1A"/>
<defs>
<clipPath id="clip0_20_325">
<rect width="46" height="46" fill="white" transform="translate(23 3)"/>
</clipPath>
</defs>
</svg>
