<svg width="92" height="92" viewBox="0 0 92 92" fill="none" xmlns="http://www.w3.org/2000/svg">
<g clip-path="url(#clip0_21_1759)">
<path d="M54.5004 39.4167C52.5875 39.4167 51.0734 38.2322 50.6555 36.5417H41.3444C40.9285 38.2322 39.4124 39.4167 37.4995 39.4167C35.3184 39.4167 33.5416 37.5805 33.5416 35.3227C33.5416 34.3548 33.8713 33.4348 34.452 32.7083C33.8713 31.9819 33.5416 31.0619 33.5416 30.094C33.5416 27.8362 35.3184 26 37.4995 26C39.4124 26 40.9265 27.1845 41.3444 28.875H50.6536C51.0715 27.1845 52.5856 26 54.4985 26C56.6815 26 58.4564 27.8362 58.4564 30.094C58.4564 31.0619 58.1267 31.9819 57.5459 32.7083C58.1267 33.4348 58.4564 34.3548 58.4564 35.3227C58.4583 37.5805 56.6815 39.4167 54.5004 39.4167ZM40.501 34.625H51.4989C52.0279 34.625 52.4572 35.0543 52.4572 35.5833C52.4572 36.9001 53.5171 37.5 54.4985 37.5C55.6255 37.5 56.5397 36.5225 56.5397 35.3227C56.5397 34.5828 56.1909 33.9005 55.6101 33.4942C55.3533 33.3159 55.1999 33.0208 55.1999 32.7083C55.1999 32.3959 55.3533 32.1008 55.6101 31.9225C56.1928 31.5181 56.5397 30.8338 56.5397 30.094C56.5416 28.8942 55.6255 27.9167 54.5004 27.9167C53.5171 27.9167 52.4591 28.5166 52.4591 29.8333C52.4591 30.3623 52.0298 30.7917 51.5008 30.7917H40.501C39.972 30.7917 39.5427 30.3623 39.5427 29.8333C39.5427 28.5166 38.4828 27.9167 37.5015 27.9167C36.3745 27.9167 35.4583 28.8942 35.4583 30.094C35.4583 30.8338 35.8071 31.5162 36.3879 31.9225C36.6447 32.1008 36.798 32.3959 36.798 32.7083C36.798 33.0208 36.6447 33.3159 36.3879 33.4942C35.8071 33.9005 35.4583 34.5828 35.4583 35.3227C35.4583 36.5225 36.3745 37.5 37.4995 37.5C38.4828 37.5 39.5408 36.9001 39.5408 35.5833C39.5427 35.0543 39.9701 34.625 40.501 34.625Z" fill="#7B8E98"/>
<path d="M62.2917 49H29.7084C28.1233 49 26.8334 47.7101 26.8334 46.125V25.0417C26.8334 24.9573 26.8449 24.8711 26.8679 24.7906L32.2307 5.11792C32.5738 3.87017 33.7142 3 35.006 3H56.996C58.2878 3 59.4282 3.87017 59.7694 5.11792L65.1341 24.7906C65.1552 24.8711 65.1667 24.9573 65.1667 25.0417V46.125C65.1667 47.7101 63.8768 49 62.2917 49ZM28.75 25.1701V46.125C28.75 46.654 29.1813 47.0833 29.7084 47.0833H62.2917C62.8188 47.0833 63.25 46.654 63.25 46.125V25.1701L57.9198 5.622C57.8048 5.208 57.4253 4.91667 56.994 4.91667H35.006C34.5748 4.91667 34.1953 5.208 34.0803 5.62392L28.75 25.1701Z" fill="#7B8E98"/>
<path d="M51.75 14.5H40.25C38.1359 14.5 36.4166 12.7807 36.4166 10.6666C36.4166 8.55256 38.1359 6.83331 40.25 6.83331H51.75C53.8641 6.83331 55.5833 8.55256 55.5833 10.6666C55.5833 12.7807 53.8641 14.5 51.75 14.5ZM40.25 8.74998C39.192 8.74998 38.3333 9.61056 38.3333 10.6666C38.3333 11.7227 39.192 12.5833 40.25 12.5833H51.75C52.808 12.5833 53.6666 11.7227 53.6666 10.6666C53.6666 9.61056 52.808 8.74998 51.75 8.74998H40.25Z" fill="#7B8E98"/>
</g>
<path d="M25.8914 72.64C26.2007 72.64 26.446 72.736 26.6274 72.928C26.8087 73.1093 26.8994 73.3547 26.8994 73.664V83.056C26.8994 83.3653 26.8034 83.616 26.6114 83.808C26.43 84 26.19 84.096 25.8914 84.096C25.582 84.096 25.3367 84 25.1554 83.808C24.974 83.616 24.8834 83.3653 24.8834 83.056V79.104H19.1074V83.056C19.1074 83.3653 19.0114 83.616 18.8194 83.808C18.638 84 18.3927 84.096 18.0834 84.096C17.7847 84.096 17.5394 84 17.3474 83.808C17.166 83.616 17.0754 83.3653 17.0754 83.056V73.664C17.0754 73.3547 17.166 73.1093 17.3474 72.928C17.5287 72.736 17.774 72.64 18.0834 72.64C18.3927 72.64 18.638 72.736 18.8194 72.928C19.0114 73.1093 19.1074 73.3547 19.1074 73.664V77.44H24.8834V73.664C24.8834 73.3547 24.974 73.1093 25.1554 72.928C25.3367 72.736 25.582 72.64 25.8914 72.64ZM32.5414 75.984C33.6294 75.984 34.4347 76.256 34.9574 76.8C35.4907 77.3333 35.7574 78.1493 35.7574 79.248V83.152C35.7574 83.44 35.672 83.6693 35.5014 83.84C35.3307 84 35.096 84.08 34.7974 84.08C34.52 84.08 34.2907 83.9947 34.1094 83.824C33.9387 83.6533 33.8534 83.4293 33.8534 83.152V82.8C33.672 83.216 33.384 83.5413 32.9894 83.776C32.6054 84.0107 32.1574 84.128 31.6454 84.128C31.1227 84.128 30.648 84.0213 30.2214 83.808C29.7947 83.5947 29.4587 83.3013 29.2134 82.928C28.968 82.5547 28.8454 82.1387 28.8454 81.68C28.8454 81.104 28.9894 80.6507 29.2774 80.32C29.576 79.9893 30.056 79.7493 30.7174 79.6C31.3787 79.4507 32.2907 79.376 33.4534 79.376H33.8534V79.008C33.8534 78.4853 33.7414 78.1067 33.5174 77.872C33.2934 77.6267 32.9307 77.504 32.4294 77.504C32.12 77.504 31.8054 77.552 31.4854 77.648C31.1654 77.7333 30.7867 77.8613 30.3494 78.032C30.072 78.1707 29.8694 78.24 29.7414 78.24C29.5494 78.24 29.3894 78.1707 29.2614 78.032C29.144 77.8933 29.0854 77.712 29.0854 77.488C29.0854 77.3067 29.128 77.152 29.2134 77.024C29.3094 76.8853 29.464 76.7573 29.6774 76.64C30.0507 76.4373 30.4934 76.2773 31.0054 76.16C31.528 76.0427 32.04 75.984 32.5414 75.984ZM32.0454 82.688C32.5787 82.688 33.0107 82.512 33.3414 82.16C33.6827 81.7973 33.8534 81.3333 33.8534 80.768V80.432H33.5654C32.8507 80.432 32.296 80.464 31.9014 80.528C31.5067 80.592 31.224 80.704 31.0534 80.864C30.8827 81.024 30.7974 81.2427 30.7974 81.52C30.7974 81.8613 30.9147 82.144 31.1494 82.368C31.3947 82.5813 31.6934 82.688 32.0454 82.688ZM41.502 84.128C40.19 84.128 39.198 83.7013 38.526 82.848C37.854 81.9947 37.518 80.8427 37.518 79.392C37.518 78.2187 37.63 77.248 37.854 76.48C38.0887 75.7013 38.4353 75.0773 38.894 74.608C39.3633 74.128 39.9713 73.7387 40.718 73.44C41.1233 73.2693 41.6353 73.0933 42.254 72.912C42.9473 72.6987 43.4593 72.5333 43.79 72.416C43.9713 72.3627 44.1153 72.336 44.222 72.336C44.4567 72.336 44.6433 72.4053 44.782 72.544C44.9207 72.6827 44.99 72.8533 44.99 73.056C44.99 73.2053 44.9367 73.36 44.83 73.52C44.734 73.6693 44.5847 73.7973 44.382 73.904C44.126 74.0427 43.8167 74.176 43.454 74.304C43.102 74.4213 42.75 74.5333 42.398 74.64C41.95 74.768 41.614 74.8693 41.39 74.944C40.6007 75.2 40.0193 75.5787 39.646 76.08C39.2833 76.5813 39.0807 77.312 39.038 78.272C39.2727 77.664 39.662 77.1787 40.206 76.816C40.7607 76.4533 41.3793 76.272 42.062 76.272C43.1607 76.272 44.014 76.608 44.622 77.28C45.23 77.952 45.534 78.9013 45.534 80.128C45.534 80.8853 45.3687 81.568 45.038 82.176C44.7073 82.784 44.238 83.264 43.63 83.616C43.022 83.9573 42.3127 84.128 41.502 84.128ZM41.502 82.576C42.1633 82.576 42.6647 82.352 43.006 81.904C43.358 81.4453 43.534 80.8747 43.534 80.192C43.534 79.4133 43.3633 78.832 43.022 78.448C42.6807 78.0533 42.2167 77.856 41.63 77.856C40.9793 77.856 40.4727 78.0747 40.11 78.512C39.758 78.9387 39.582 79.504 39.582 80.208C39.582 80.9227 39.7367 81.4987 40.046 81.936C40.366 82.3627 40.8513 82.576 41.502 82.576ZM50.7486 84.128C49.9486 84.128 49.2446 83.9627 48.6366 83.632C48.0393 83.3013 47.5753 82.8267 47.2446 82.208C46.914 81.5893 46.7486 80.8693 46.7486 80.048C46.7486 79.2267 46.914 78.512 47.2446 77.904C47.5753 77.2853 48.0393 76.8107 48.6366 76.48C49.2446 76.1493 49.9486 75.984 50.7486 75.984C51.5486 75.984 52.2473 76.1493 52.8446 76.48C53.4526 76.8107 53.9166 77.2853 54.2366 77.904C54.5673 78.512 54.7326 79.2267 54.7326 80.048C54.7326 80.8693 54.5673 81.5893 54.2366 82.208C53.9166 82.8267 53.4526 83.3013 52.8446 83.632C52.2473 83.9627 51.5486 84.128 50.7486 84.128ZM50.7326 82.576C51.3833 82.576 51.8793 82.3627 52.2206 81.936C52.562 81.5093 52.7326 80.88 52.7326 80.048C52.7326 79.2267 52.562 78.6027 52.2206 78.176C51.8793 77.7387 51.3886 77.52 50.7486 77.52C50.1086 77.52 49.6126 77.7387 49.2606 78.176C48.9193 78.6027 48.7486 79.2267 48.7486 80.048C48.7486 80.88 48.9193 81.5093 49.2606 81.936C49.602 82.3627 50.0926 82.576 50.7326 82.576ZM60.8798 75.984C61.5518 75.984 62.1491 76.1547 62.6718 76.496C63.2051 76.8373 63.6158 77.3227 63.9038 77.952C64.2024 78.5707 64.3518 79.2853 64.3518 80.096C64.3518 80.9067 64.2024 81.616 63.9038 82.224C63.6158 82.832 63.2104 83.3013 62.6878 83.632C62.1651 83.9627 61.5624 84.128 60.8798 84.128C60.3251 84.128 59.8291 84.0107 59.3918 83.776C58.9544 83.5413 58.6184 83.216 58.3838 82.8V86.064C58.3838 86.3413 58.2931 86.56 58.1118 86.72C57.9304 86.88 57.6904 86.96 57.3918 86.96C57.0931 86.96 56.8478 86.8747 56.6558 86.704C56.4744 86.5333 56.3838 86.3093 56.3838 86.032V76.96C56.3838 76.672 56.4691 76.4427 56.6398 76.272C56.8211 76.1013 57.0611 76.016 57.3598 76.016C57.6584 76.016 57.8984 76.1013 58.0798 76.272C58.2611 76.4427 58.3518 76.672 58.3518 76.96V77.36C58.5864 76.9227 58.9224 76.5867 59.3598 76.352C59.8078 76.1067 60.3144 75.984 60.8798 75.984ZM60.3518 82.576C60.9811 82.576 61.4718 82.3627 61.8238 81.936C62.1758 81.4987 62.3518 80.8853 62.3518 80.096C62.3518 79.2853 62.1758 78.656 61.8238 78.208C61.4718 77.76 60.9811 77.536 60.3518 77.536C59.7118 77.536 59.2158 77.7547 58.8638 78.192C58.5224 78.6293 58.3518 79.2533 58.3518 80.064C58.3518 80.864 58.5224 81.4827 58.8638 81.92C59.2158 82.3573 59.7118 82.576 60.3518 82.576ZM66.9531 84C66.6438 84.0107 66.3985 83.9307 66.2171 83.76C66.0358 83.5893 65.9451 83.3547 65.9451 83.056V76.96C65.9451 76.672 66.0358 76.4427 66.2171 76.272C66.3985 76.1013 66.6385 76.016 66.9371 76.016C67.2465 76.016 67.4918 76.1013 67.6731 76.272C67.8545 76.4427 67.9451 76.672 67.9451 76.96V78.768H69.1131C70.0731 78.768 70.8198 78.9653 71.3531 79.36C71.8865 79.744 72.1531 80.3893 72.1531 81.296C72.1531 81.872 72.0038 82.368 71.7051 82.784C71.4171 83.1893 71.0331 83.4933 70.5531 83.696C70.0838 83.8987 69.5771 84 69.0331 84H66.9531ZM74.1531 84.096C73.8438 84.096 73.5985 84.0107 73.4171 83.84C73.2358 83.6693 73.1451 83.44 73.1451 83.152V76.96C73.1451 76.672 73.2358 76.4427 73.4171 76.272C73.5985 76.1013 73.8438 76.016 74.1531 76.016C74.4518 76.016 74.6918 76.1013 74.8731 76.272C75.0545 76.4427 75.1451 76.672 75.1451 76.96V83.152C75.1451 83.44 75.0545 83.6693 74.8731 83.84C74.6918 84.0107 74.4518 84.096 74.1531 84.096ZM68.6171 82.624C69.0438 82.624 69.4118 82.5227 69.7211 82.32C70.0305 82.1173 70.1851 81.792 70.1851 81.344C70.1851 80.864 70.0411 80.544 69.7531 80.384C69.4758 80.224 69.0971 80.144 68.6171 80.144H67.9131V82.624H68.6171Z" fill="#1A1A1A"/>
<defs>
<clipPath id="clip0_21_1759">
<path d="M23 3H69V49H23V3Z" fill="white"/>
</clipPath>
</defs>
</svg>
