<svg width="92" height="92" viewBox="0 0 92 92" fill="none" xmlns="http://www.w3.org/2000/svg">
<path d="M66.3047 10.7969H40.9952C40.6244 9.75109 39.6251 9 38.4538 9H33.0632C31.8919 9 30.8927 9.75109 30.5219 10.7969H25.6953C24.2091 10.7969 23 12.006 23 13.4922V22.4766C23 23.9628 24.2091 25.1719 25.6953 25.1719H30.5219C30.8927 26.2177 31.8919 26.9688 33.0632 26.9688H38.4538C39.6251 26.9688 40.6244 26.2177 40.9952 25.1719H45.1016V35.0463L41.7293 35.95C40.7376 34.6297 39.0125 34.0052 37.3714 34.4448C35.1795 35.0321 33.874 37.2932 34.4613 39.4853C34.6384 40.1461 34.9797 40.7565 35.4484 41.2507C35.4753 41.279 35.5017 41.3064 35.5273 41.3329C35.5701 41.3772 35.6252 41.4344 35.6558 41.4709C35.6476 41.5178 35.6284 41.5946 35.6135 41.6542C35.6045 41.6902 35.5954 41.7272 35.5862 41.7654C35.4274 42.4273 35.4371 43.1267 35.6142 43.7878C36.1063 45.6243 37.7734 46.8386 39.5904 46.8386C39.9419 46.8385 40.2992 46.793 40.6546 46.6979C42.2959 46.258 43.4774 44.8546 43.676 43.2154L50.2704 41.4486C51.2595 42.7695 52.9852 43.3942 54.6303 42.953C56.8222 42.3656 58.1277 40.1045 57.5403 37.9125C57.3632 37.2516 57.0219 36.6412 56.5535 36.1473C56.5265 36.1189 56.4999 36.0914 56.4741 36.0646C56.4314 36.0204 56.3764 35.9635 56.3458 35.927C56.354 35.8802 56.3732 35.8034 56.388 35.7439C56.397 35.7078 56.4062 35.6708 56.4155 35.6325C57.1588 32.6425 54.319 29.8763 51.3471 30.7C49.7017 31.1409 48.5197 32.5444 48.3235 34.183L46.8984 34.5649V25.1719H66.3047C67.7909 25.1719 69 23.9628 69 22.4766V13.4922C69 12.006 67.7909 10.7969 66.3047 10.7969ZM49.433 35.746C49.8475 35.635 50.1255 35.2463 50.097 34.8183C50.0226 33.706 50.7279 32.7263 51.8123 32.4356C53.026 32.1106 54.3265 32.8611 54.652 34.0751C54.7532 34.4532 54.7587 34.8362 54.6683 35.2134L54.6448 35.309C54.5732 35.596 54.484 35.9531 54.6022 36.3941C54.7203 36.8351 54.9761 37.1 55.1816 37.3129L55.2499 37.384C55.513 37.6614 55.7049 38.005 55.8048 38.3777C56.1302 39.5918 55.3793 40.8921 54.1653 41.2174C53.0809 41.5081 51.9802 41.0123 51.4885 40.0118C51.2993 39.6268 50.8641 39.4289 50.4497 39.5403L42.5681 41.6521C42.1546 41.7629 41.8766 42.1502 41.9041 42.5775C41.9746 43.6742 41.2535 44.6771 40.1896 44.9623C38.9552 45.293 37.6809 44.5577 37.35 43.3228C37.2501 42.9501 37.2445 42.5565 37.3337 42.1847L37.3572 42.0893C37.4288 41.8021 37.518 41.4447 37.3997 41.0036C37.2815 40.5624 37.0255 40.2975 36.8199 40.0846L36.7522 40.014C36.4852 39.7326 36.2985 39.3983 36.1971 39.0202C35.8663 37.7852 36.6017 36.5113 37.8367 36.1805C38.9005 35.8951 40.0265 36.4034 40.5139 37.3884C40.7038 37.7723 41.1377 37.9689 41.5517 37.8579L49.433 35.746ZM40.9952 23.375C40.6244 22.3292 39.6251 21.5781 38.4538 21.5781H36.657V18.8828H40.2507C41.4428 18.8354 41.4419 17.133 40.2507 17.0859H36.657V14.3906H38.4538C39.6251 14.3906 40.6244 13.6395 40.9952 12.5938H58.5904L63.3459 17.3492C63.6915 17.6801 63.6915 18.2888 63.3459 18.6197L58.5904 23.3751L40.9952 23.375ZM24.7969 22.4766V13.4922C24.7969 12.9968 25.1999 12.5938 25.6953 12.5938H30.3679V23.375H25.6953C25.1999 23.375 24.7969 22.972 24.7969 22.4766ZM38.4538 25.1719H33.0632C32.5678 25.1719 32.1648 24.7688 32.1648 24.2734V11.6953C32.1648 11.1999 32.5678 10.7969 33.0632 10.7969H38.4538C39.6461 10.8464 39.6451 12.5447 38.4538 12.5938H35.7585C35.2623 12.5938 34.8601 12.9961 34.8601 13.4922V17.0859C33.668 17.1334 33.6689 18.8357 34.8601 18.8828V22.4766C34.8601 22.9727 35.2623 23.375 35.7585 23.375H38.4538C39.646 23.4245 39.6451 25.1228 38.4538 25.1719ZM67.2031 22.4766C67.2031 22.972 66.8001 23.375 66.3047 23.375H61.1317L64.6164 19.8902C65.6592 18.8904 65.6592 17.0783 64.6164 16.0785L61.1317 12.5938H66.3047C66.8001 12.5938 67.2031 12.9968 67.2031 13.4922V22.4766Z" fill="#7B8E98"/>
<path d="M12.2916 82.768C12.3556 82.9067 12.3876 83.0453 12.3876 83.184C12.3876 83.4293 12.2862 83.6373 12.0836 83.808C11.8916 83.9787 11.6676 84.064 11.4116 84.064C11.2409 84.064 11.0809 84.0213 10.9316 83.936C10.7822 83.84 10.6649 83.696 10.5796 83.504L9.61956 81.36H3.98756L3.02756 83.504C2.94223 83.696 2.8249 83.84 2.67556 83.936C2.52623 84.0213 2.3609 84.064 2.17956 84.064C1.93423 84.064 1.71023 83.9787 1.50756 83.808C1.3049 83.6373 1.20356 83.4293 1.20356 83.184C1.20356 83.0453 1.23556 82.9067 1.29956 82.768L5.71556 73.28C5.81156 73.0667 5.95556 72.9067 6.14756 72.8C6.35023 72.6827 6.56356 72.624 6.78756 72.624C7.01156 72.624 7.21956 72.6827 7.41156 72.8C7.61423 72.9067 7.76356 73.0667 7.85956 73.28L12.2916 82.768ZM4.69156 79.76H8.91556L6.80356 75.008L4.69156 79.76ZM18.3426 79.712C18.7159 79.8507 19.0146 80.0373 19.2386 80.272C19.4732 80.5067 19.7452 80.9013 20.0546 81.456L20.7586 82.672C20.8546 82.8427 20.9026 83.008 20.9026 83.168C20.9026 83.424 20.8012 83.6427 20.5986 83.824C20.4066 83.9947 20.1772 84.08 19.9106 84.08C19.5479 84.08 19.2706 83.9093 19.0786 83.568L18.0706 81.776C17.8466 81.4027 17.6279 81.1413 17.4146 80.992C17.2012 80.8427 16.8919 80.768 16.4866 80.768H15.8626V83.136C15.8626 83.4347 15.7719 83.6693 15.5906 83.84C15.4092 84.0107 15.1639 84.096 14.8546 84.096C14.5452 84.096 14.2999 84.0107 14.1186 83.84C13.9479 83.6693 13.8626 83.4347 13.8626 83.136V76.96C13.8626 76.672 13.9532 76.4427 14.1346 76.272C14.3159 76.1013 14.5559 76.016 14.8546 76.016C15.1639 76.016 15.4092 76.1013 15.5906 76.272C15.7719 76.4427 15.8626 76.672 15.8626 76.96V79.28H16.5826L18.8706 76.432C19.0839 76.1547 19.3346 76.016 19.6226 76.016C19.8466 76.016 20.0386 76.096 20.1986 76.256C20.3586 76.416 20.4386 76.608 20.4386 76.832C20.4386 77.056 20.3532 77.2747 20.1826 77.488L18.3426 79.712ZM25.9729 84.128C25.1943 84.128 24.5063 83.9627 23.9089 83.632C23.3223 83.3013 22.8689 82.832 22.5489 82.224C22.2289 81.616 22.0689 80.9067 22.0689 80.096C22.0689 79.2853 22.2343 78.5707 22.5649 77.952C22.9063 77.3227 23.3809 76.8373 23.9889 76.496C24.5969 76.1547 25.2956 75.984 26.0849 75.984C26.5009 75.984 26.9169 76.0427 27.3329 76.16C27.7596 76.2773 28.1329 76.4373 28.4529 76.64C28.7943 76.864 28.9649 77.1467 28.9649 77.488C28.9649 77.7227 28.9063 77.9147 28.7889 78.064C28.6823 78.2027 28.5383 78.272 28.3569 78.272C28.2396 78.272 28.1169 78.2453 27.9889 78.192C27.8609 78.1387 27.7329 78.0747 27.6049 78C27.3703 77.8613 27.1463 77.7547 26.9329 77.68C26.7196 77.5947 26.4743 77.552 26.1969 77.552C25.5356 77.552 25.0236 77.7707 24.6609 78.208C24.3089 78.6347 24.1329 79.2533 24.1329 80.064C24.1329 80.864 24.3089 81.4827 24.6609 81.92C25.0236 82.3467 25.5356 82.56 26.1969 82.56C26.4636 82.56 26.6983 82.5227 26.9009 82.448C27.1143 82.3627 27.3489 82.2507 27.6049 82.112C27.7649 82.016 27.9036 81.9467 28.0209 81.904C28.1383 81.8507 28.2556 81.824 28.3729 81.824C28.5436 81.824 28.6876 81.8987 28.8049 82.048C28.9223 82.1973 28.9809 82.384 28.9809 82.608C28.9809 82.7893 28.9383 82.9493 28.8529 83.088C28.7783 83.216 28.6503 83.3333 28.4689 83.44C28.1383 83.6533 27.7543 83.824 27.3169 83.952C26.8796 84.0693 26.4316 84.128 25.9729 84.128ZM36.5054 81.856C36.6868 81.856 36.8308 81.9253 36.9374 82.064C37.0548 82.2027 37.1134 82.3893 37.1134 82.624C37.1134 82.9547 36.9161 83.232 36.5214 83.456C36.1588 83.6587 35.7481 83.824 35.2894 83.952C34.8308 84.0693 34.3934 84.128 33.9774 84.128C32.7188 84.128 31.7214 83.7653 30.9854 83.04C30.2494 82.3147 29.8814 81.3227 29.8814 80.064C29.8814 79.264 30.0414 78.5547 30.3614 77.936C30.6814 77.3173 31.1294 76.8373 31.7054 76.496C32.2921 76.1547 32.9534 75.984 33.6894 75.984C34.3934 75.984 35.0068 76.1387 35.5294 76.448C36.0521 76.7573 36.4574 77.1947 36.7454 77.76C37.0334 78.3253 37.1774 78.992 37.1774 79.76C37.1774 80.2187 36.9748 80.448 36.5694 80.448H31.8494C31.9134 81.184 32.1214 81.728 32.4734 82.08C32.8254 82.4213 33.3374 82.592 34.0094 82.592C34.3508 82.592 34.6494 82.5493 34.9054 82.464C35.1721 82.3787 35.4708 82.2613 35.8014 82.112C36.1214 81.9413 36.3561 81.856 36.5054 81.856ZM33.7374 77.392C33.1934 77.392 32.7561 77.5627 32.4254 77.904C32.1054 78.2453 31.9134 78.736 31.8494 79.376H35.4654C35.4441 78.7253 35.2841 78.2347 34.9854 77.904C34.6868 77.5627 34.2708 77.392 33.7374 77.392ZM42.2854 84.128C41.5068 84.128 40.8188 83.9627 40.2214 83.632C39.6348 83.3013 39.1814 82.832 38.8614 82.224C38.5414 81.616 38.3814 80.9067 38.3814 80.096C38.3814 79.2853 38.5468 78.5707 38.8774 77.952C39.2188 77.3227 39.6934 76.8373 40.3014 76.496C40.9094 76.1547 41.6081 75.984 42.3974 75.984C42.8134 75.984 43.2294 76.0427 43.6454 76.16C44.0721 76.2773 44.4454 76.4373 44.7654 76.64C45.1068 76.864 45.2774 77.1467 45.2774 77.488C45.2774 77.7227 45.2188 77.9147 45.1014 78.064C44.9948 78.2027 44.8508 78.272 44.6694 78.272C44.5521 78.272 44.4294 78.2453 44.3014 78.192C44.1734 78.1387 44.0454 78.0747 43.9174 78C43.6828 77.8613 43.4588 77.7547 43.2454 77.68C43.0321 77.5947 42.7868 77.552 42.5094 77.552C41.8481 77.552 41.3361 77.7707 40.9734 78.208C40.6214 78.6347 40.4454 79.2533 40.4454 80.064C40.4454 80.864 40.6214 81.4827 40.9734 81.92C41.3361 82.3467 41.8481 82.56 42.5094 82.56C42.7761 82.56 43.0108 82.5227 43.2134 82.448C43.4268 82.3627 43.6614 82.2507 43.9174 82.112C44.0774 82.016 44.2161 81.9467 44.3334 81.904C44.4508 81.8507 44.5681 81.824 44.6854 81.824C44.8561 81.824 45.0001 81.8987 45.1174 82.048C45.2348 82.1973 45.2934 82.384 45.2934 82.608C45.2934 82.7893 45.2508 82.9493 45.1654 83.088C45.0908 83.216 44.9628 83.3333 44.7814 83.44C44.4508 83.6533 44.0668 83.824 43.6294 83.952C43.1921 84.0693 42.7441 84.128 42.2854 84.128ZM50.0979 84.128C49.3193 84.128 48.6313 83.9627 48.0339 83.632C47.4473 83.3013 46.9939 82.832 46.6739 82.224C46.3539 81.616 46.1939 80.9067 46.1939 80.096C46.1939 79.2853 46.3593 78.5707 46.6899 77.952C47.0313 77.3227 47.5059 76.8373 48.1139 76.496C48.7219 76.1547 49.4206 75.984 50.2099 75.984C50.6259 75.984 51.0419 76.0427 51.4579 76.16C51.8846 76.2773 52.2579 76.4373 52.5779 76.64C52.9193 76.864 53.0899 77.1467 53.0899 77.488C53.0899 77.7227 53.0313 77.9147 52.9139 78.064C52.8073 78.2027 52.6633 78.272 52.4819 78.272C52.3646 78.272 52.2419 78.2453 52.1139 78.192C51.9859 78.1387 51.8579 78.0747 51.7299 78C51.4953 77.8613 51.2713 77.7547 51.0579 77.68C50.8446 77.5947 50.5993 77.552 50.3219 77.552C49.6606 77.552 49.1486 77.7707 48.7859 78.208C48.4339 78.6347 48.2579 79.2533 48.2579 80.064C48.2579 80.864 48.4339 81.4827 48.7859 81.92C49.1486 82.3467 49.6606 82.56 50.3219 82.56C50.5886 82.56 50.8233 82.5227 51.0259 82.448C51.2393 82.3627 51.4739 82.2507 51.7299 82.112C51.8899 82.016 52.0286 81.9467 52.1459 81.904C52.2633 81.8507 52.3806 81.824 52.4979 81.824C52.6686 81.824 52.8126 81.8987 52.9299 82.048C53.0473 82.1973 53.1059 82.384 53.1059 82.608C53.1059 82.7893 53.0633 82.9493 52.9779 83.088C52.9033 83.216 52.7753 83.3333 52.5939 83.44C52.2633 83.6533 51.8793 83.824 51.4419 83.952C51.0046 84.0693 50.5566 84.128 50.0979 84.128ZM59.8944 76.592C59.9798 76.4 60.0918 76.2613 60.2304 76.176C60.3798 76.08 60.5398 76.032 60.7104 76.032C60.9558 76.032 61.1744 76.1173 61.3664 76.288C61.5691 76.448 61.6704 76.6507 61.6704 76.896C61.6704 77.0133 61.6384 77.136 61.5744 77.264L57.2064 86.416C57.0251 86.7787 56.7424 86.96 56.3584 86.96C56.1131 86.96 55.8944 86.88 55.7024 86.72C55.5211 86.5707 55.4304 86.3787 55.4304 86.144C55.4304 86.0267 55.4624 85.8933 55.5264 85.744L56.6144 83.456L53.6384 77.264C53.5851 77.1573 53.5584 77.0347 53.5584 76.896C53.5584 76.6507 53.6598 76.4427 53.8624 76.272C54.0758 76.1013 54.3158 76.016 54.5824 76.016C54.7638 76.016 54.9291 76.064 55.0784 76.16C55.2278 76.2453 55.3451 76.384 55.4304 76.576L57.6704 81.52L59.8944 76.592ZM66.1429 75.984C67.2309 75.984 68.0363 76.256 68.5589 76.8C69.0923 77.3333 69.3589 78.1493 69.3589 79.248V83.152C69.3589 83.44 69.2736 83.6693 69.1029 83.84C68.9323 84 68.6976 84.08 68.3989 84.08C68.1216 84.08 67.8923 83.9947 67.7109 83.824C67.5403 83.6533 67.4549 83.4293 67.4549 83.152V82.8C67.2736 83.216 66.9856 83.5413 66.5909 83.776C66.2069 84.0107 65.7589 84.128 65.2469 84.128C64.7243 84.128 64.2496 84.0213 63.8229 83.808C63.3963 83.5947 63.0603 83.3013 62.8149 82.928C62.5696 82.5547 62.4469 82.1387 62.4469 81.68C62.4469 81.104 62.5909 80.6507 62.8789 80.32C63.1776 79.9893 63.6576 79.7493 64.3189 79.6C64.9803 79.4507 65.8923 79.376 67.0549 79.376H67.4549V79.008C67.4549 78.4853 67.3429 78.1067 67.1189 77.872C66.8949 77.6267 66.5323 77.504 66.0309 77.504C65.7216 77.504 65.4069 77.552 65.0869 77.648C64.7669 77.7333 64.3883 77.8613 63.9509 78.032C63.6736 78.1707 63.4709 78.24 63.3429 78.24C63.1509 78.24 62.9909 78.1707 62.8629 78.032C62.7456 77.8933 62.6869 77.712 62.6869 77.488C62.6869 77.3067 62.7296 77.152 62.8149 77.024C62.9109 76.8853 63.0656 76.7573 63.2789 76.64C63.6523 76.4373 64.0949 76.2773 64.6069 76.16C65.1296 76.0427 65.6416 75.984 66.1429 75.984ZM65.6469 82.688C66.1803 82.688 66.6123 82.512 66.9429 82.16C67.2843 81.7973 67.4549 81.3333 67.4549 80.768V80.432H67.1669C66.4523 80.432 65.8976 80.464 65.5029 80.528C65.1083 80.592 64.8256 80.704 64.6549 80.864C64.4843 81.024 64.3989 81.2427 64.3989 81.52C64.3989 81.8613 64.5163 82.144 64.7509 82.368C64.9963 82.5813 65.2949 82.688 65.6469 82.688ZM75.8876 75.984C76.5596 75.984 77.1569 76.1547 77.6796 76.496C78.2129 76.8373 78.6236 77.3227 78.9116 77.952C79.2102 78.5707 79.3596 79.2853 79.3596 80.096C79.3596 80.9067 79.2102 81.616 78.9116 82.224C78.6236 82.832 78.2182 83.3013 77.6956 83.632C77.1729 83.9627 76.5702 84.128 75.8876 84.128C75.3329 84.128 74.8369 84.0107 74.3996 83.776C73.9622 83.5413 73.6262 83.216 73.3916 82.8V86.064C73.3916 86.3413 73.3009 86.56 73.1196 86.72C72.9382 86.88 72.6982 86.96 72.3996 86.96C72.1009 86.96 71.8556 86.8747 71.6636 86.704C71.4822 86.5333 71.3916 86.3093 71.3916 86.032V76.96C71.3916 76.672 71.4769 76.4427 71.6476 76.272C71.8289 76.1013 72.0689 76.016 72.3676 76.016C72.6662 76.016 72.9062 76.1013 73.0876 76.272C73.2689 76.4427 73.3596 76.672 73.3596 76.96V77.36C73.5942 76.9227 73.9302 76.5867 74.3676 76.352C74.8156 76.1067 75.3222 75.984 75.8876 75.984ZM75.3596 82.576C75.9889 82.576 76.4796 82.3627 76.8316 81.936C77.1836 81.4987 77.3596 80.8853 77.3596 80.096C77.3596 79.2853 77.1836 78.656 76.8316 78.208C76.4796 77.76 75.9889 77.536 75.3596 77.536C74.7196 77.536 74.2236 77.7547 73.8716 78.192C73.5302 78.6293 73.3596 79.2533 73.3596 80.064C73.3596 80.864 73.5302 81.4827 73.8716 81.92C74.2236 82.3573 74.7196 82.576 75.3596 82.576ZM81.9609 84C81.6516 84.0107 81.4063 83.9307 81.2249 83.76C81.0436 83.5893 80.9529 83.3547 80.9529 83.056V76.96C80.9529 76.672 81.0436 76.4427 81.2249 76.272C81.4063 76.1013 81.6463 76.016 81.9449 76.016C82.2543 76.016 82.4996 76.1013 82.6809 76.272C82.8623 76.4427 82.9529 76.672 82.9529 76.96V78.768H84.1209C85.0809 78.768 85.8276 78.9653 86.3609 79.36C86.8943 79.744 87.1609 80.3893 87.1609 81.296C87.1609 81.872 87.0116 82.368 86.7129 82.784C86.4249 83.1893 86.0409 83.4933 85.5609 83.696C85.0916 83.8987 84.5849 84 84.0409 84H81.9609ZM89.1609 84.096C88.8516 84.096 88.6063 84.0107 88.4249 83.84C88.2436 83.6693 88.1529 83.44 88.1529 83.152V76.96C88.1529 76.672 88.2436 76.4427 88.4249 76.272C88.6063 76.1013 88.8516 76.016 89.1609 76.016C89.4596 76.016 89.6996 76.1013 89.8809 76.272C90.0623 76.4427 90.1529 76.672 90.1529 76.96V83.152C90.1529 83.44 90.0623 83.6693 89.8809 83.84C89.6996 84.0107 89.4596 84.096 89.1609 84.096ZM83.6249 82.624C84.0516 82.624 84.4196 82.5227 84.7289 82.32C85.0383 82.1173 85.1929 81.792 85.1929 81.344C85.1929 80.864 85.0489 80.544 84.7609 80.384C84.4836 80.224 84.1049 80.144 83.6249 80.144H82.9209V82.624H83.6249Z" fill="#1A1A1A"/>
</svg>
