<svg width="42" height="10" viewBox="0 0 42 10" fill="none" xmlns="http://www.w3.org/2000/svg">
<path d="M4.952 7.98C5.144 7.98 5.288 8.024 5.384 8.112C5.48 8.2 5.528 8.324 5.528 8.484C5.528 8.828 5.336 9 4.952 9H0.944C0.552 9 0.356 8.828 0.356 8.484C0.356 8.324 0.404 8.2 0.5 8.112C0.604 8.024 0.752 7.98 0.944 7.98H2.324V1.992L1.088 2.772C1.008 2.82 0.928 2.844 0.848 2.844C0.712 2.844 0.592 2.784 0.488 2.664C0.392 2.544 0.344 2.408 0.344 2.256C0.344 2.072 0.424 1.928 0.584 1.824L2.432 0.648C2.616 0.536 2.792 0.48 2.96 0.48C3.136 0.48 3.28 0.536 3.392 0.648C3.504 0.76 3.56 0.911999 3.56 1.104V7.98H4.952ZM15.3954 7.98C15.5874 7.98 15.7314 8.024 15.8274 8.112C15.9314 8.2 15.9834 8.324 15.9834 8.484C15.9834 8.828 15.7874 9 15.3954 9H10.7634C10.5874 9 10.4474 8.952 10.3434 8.856C10.2474 8.752 10.1994 8.624 10.1994 8.472C10.1994 8.288 10.2714 8.12 10.4154 7.968L13.2354 4.884C13.6114 4.476 13.8834 4.104 14.0514 3.768C14.2194 3.432 14.3034 3.1 14.3034 2.772C14.3034 2.348 14.1794 2.024 13.9314 1.8C13.6914 1.568 13.3474 1.452 12.8994 1.452C12.2194 1.452 11.5434 1.712 10.8714 2.232C10.7834 2.288 10.7074 2.332 10.6434 2.364C10.5874 2.388 10.5274 2.4 10.4634 2.4C10.3514 2.4 10.2554 2.348 10.1754 2.244C10.0954 2.14 10.0554 2.016 10.0554 1.872C10.0554 1.672 10.1354 1.512 10.2954 1.392C10.6314 1.104 11.0354 0.876 11.5074 0.707999C11.9794 0.531999 12.4554 0.443999 12.9354 0.443999C13.7274 0.443999 14.3554 0.647999 14.8194 1.056C15.2914 1.456 15.5274 2 15.5274 2.688C15.5274 3.176 15.4194 3.64 15.2034 4.08C14.9954 4.52 14.6434 5.012 14.1474 5.556L11.8794 7.98H15.3954ZM20.1547 9.096C19.1707 9.096 18.4187 8.728 17.8987 7.992C17.3867 7.256 17.1307 6.184 17.1307 4.776C17.1307 3.36 17.3867 2.284 17.8987 1.548C18.4187 0.811999 19.1707 0.443999 20.1547 0.443999C21.1387 0.443999 21.8867 0.811999 22.3987 1.548C22.9187 2.276 23.1787 3.348 23.1787 4.764C23.1787 6.18 22.9187 7.256 22.3987 7.992C21.8867 8.728 21.1387 9.096 20.1547 9.096ZM20.1547 8.1C20.7707 8.1 21.2227 7.832 21.5107 7.296C21.7987 6.76 21.9427 5.916 21.9427 4.764C21.9427 3.612 21.7987 2.772 21.5107 2.244C21.2227 1.708 20.7707 1.44 20.1547 1.44C19.5387 1.44 19.0867 1.708 18.7987 2.244C18.5107 2.772 18.3667 3.612 18.3667 4.764C18.3667 5.908 18.5107 6.752 18.7987 7.296C19.0867 7.832 19.5387 8.1 20.1547 8.1ZM27.35 9.096C26.366 9.096 25.614 8.728 25.094 7.992C24.582 7.256 24.326 6.184 24.326 4.776C24.326 3.36 24.582 2.284 25.094 1.548C25.614 0.811999 26.366 0.443999 27.35 0.443999C28.334 0.443999 29.082 0.811999 29.594 1.548C30.114 2.276 30.374 3.348 30.374 4.764C30.374 6.18 30.114 7.256 29.594 7.992C29.082 8.728 28.334 9.096 27.35 9.096ZM27.35 8.1C27.966 8.1 28.418 7.832 28.706 7.296C28.994 6.76 29.138 5.916 29.138 4.764C29.138 3.612 28.994 2.772 28.706 2.244C28.418 1.708 27.966 1.44 27.35 1.44C26.734 1.44 26.282 1.708 25.994 2.244C25.706 2.772 25.562 3.612 25.562 4.764C25.562 5.908 25.706 6.752 25.994 7.296C26.282 7.832 26.734 8.1 27.35 8.1ZM36.6054 5.412V6.408H38.3574C38.4774 6.408 38.5774 6.448 38.6574 6.528C38.7374 6.6 38.7774 6.696 38.7774 6.816C38.7774 6.944 38.7374 7.048 38.6574 7.128C38.5774 7.2 38.4774 7.236 38.3574 7.236H36.6054V8.436C36.6054 8.636 36.5494 8.792 36.4374 8.904C36.3254 9.008 36.1774 9.06 35.9934 9.06C35.8174 9.06 35.6734 9.008 35.5614 8.904C35.4494 8.792 35.3934 8.636 35.3934 8.436V7.236H34.6374C34.5174 7.236 34.4134 7.196 34.3254 7.116C34.2454 7.036 34.2054 6.936 34.2054 6.816C34.2054 6.696 34.2454 6.6 34.3254 6.528C34.4134 6.448 34.5174 6.408 34.6374 6.408H35.3934V5.412H34.6374C34.5174 5.412 34.4134 5.376 34.3254 5.304C34.2454 5.224 34.2054 5.124 34.2054 5.004C34.2054 4.884 34.2454 4.788 34.3254 4.716C34.4134 4.636 34.5174 4.596 34.6374 4.596H35.3934V1.14C35.3934 0.956 35.4454 0.812 35.5494 0.707999C35.6614 0.595999 35.8134 0.539999 36.0054 0.539999H38.2014C39.0974 0.539999 39.7934 0.76 40.2894 1.2C40.7854 1.632 41.0334 2.22 41.0334 2.964C41.0334 3.724 40.7814 4.324 40.2774 4.764C39.7814 5.196 39.0894 5.412 38.2014 5.412H36.6054ZM36.5934 4.596H37.9734C39.2294 4.596 39.8574 4.088 39.8574 3.072C39.8574 2.536 39.7054 2.14 39.4014 1.884C39.0974 1.628 38.6414 1.5 38.0334 1.5H36.5934V4.596Z" fill="#1A1A1A"/>
<path d="M-1 5.496H41.3094V6.096H-1V5.496Z" fill="#1A1A1A"/>
</svg>
