<svg width="54" height="16" viewBox="0 0 54 16" fill="none" xmlns="http://www.w3.org/2000/svg">
<path d="M8.88 7.74C9.69333 7.98 10.32 8.4 10.76 9C11.2 9.58667 11.42 10.3067 11.42 11.16C11.42 12.4133 10.94 13.3933 9.98 14.1C9.02 14.8067 7.69333 15.16 6 15.16C4.30667 15.16 2.98 14.8067 2.02 14.1C1.06 13.3933 0.58 12.4133 0.58 11.16C0.58 10.28 0.8 9.54667 1.24 8.96C1.68 8.37333 2.31333 7.96667 3.14 7.74C2.44667 7.47333 1.90667 7.06 1.52 6.5C1.13333 5.94 0.94 5.28667 0.94 4.54C0.94 3.36667 1.39333 2.44 2.3 1.76C3.20667 1.06667 4.44 0.719999 6 0.719999C7.57333 0.719999 8.80667 1.06 9.7 1.74C10.6067 2.42 11.06 3.35333 11.06 4.54C11.06 5.3 10.8667 5.96667 10.48 6.54C10.0933 7.11333 9.56 7.51333 8.88 7.74ZM6 3.1C4.57333 3.1 3.86 3.69333 3.86 4.88C3.86 6.08 4.57333 6.68 6 6.68C7.42667 6.68 8.14 6.08 8.14 4.88C8.14 3.69333 7.42667 3.1 6 3.1ZM6 12.78C7.68 12.78 8.52 12.16 8.52 10.92C8.52 9.68 7.68 9.06 6 9.06C4.32 9.06 3.48 9.68 3.48 10.92C3.48 12.16 4.32 12.78 6 12.78ZM22.3922 10.04C23.3655 10.04 23.8522 10.4333 23.8522 11.22C23.8522 12.02 23.3655 12.42 22.3922 12.42H21.6522V13.56C21.6522 14.0667 21.5122 14.4533 21.2322 14.72C20.9522 14.9867 20.5855 15.12 20.1322 15.12C19.6789 15.12 19.3122 14.9867 19.0322 14.72C18.7522 14.4533 18.6122 14.0667 18.6122 13.56V12.42H13.7522C13.3389 12.42 13.0122 12.3 12.7722 12.06C12.5322 11.8067 12.4122 11.4933 12.4122 11.12C12.4122 10.7467 12.5389 10.3733 12.7922 10L18.7522 1.48C18.9122 1.25333 19.1122 1.08667 19.3522 0.979999C19.5922 0.859999 19.8455 0.799999 20.1122 0.799999C20.5255 0.799999 20.8855 0.939999 21.1922 1.22C21.4989 1.48667 21.6522 1.86 21.6522 2.34V10.04H22.3922ZM15.5522 10.04H18.6122V5.64L15.5522 10.04ZM29.9844 15.18C28.2777 15.18 26.971 14.56 26.0644 13.32C25.171 12.08 24.7244 10.2867 24.7244 7.94C24.7244 5.60667 25.171 3.82 26.0644 2.58C26.971 1.34 28.2777 0.719999 29.9844 0.719999C31.691 0.719999 32.991 1.34 33.8844 2.58C34.791 3.82 35.2444 5.60667 35.2444 7.94C35.2444 10.2867 34.791 12.08 33.8844 13.32C32.991 14.56 31.691 15.18 29.9844 15.18ZM29.9844 12.8C30.7577 12.8 31.3177 12.4133 31.6644 11.64C32.0244 10.8667 32.2044 9.63333 32.2044 7.94C32.2044 6.23333 32.0244 5 31.6644 4.24C31.3177 3.48 30.7577 3.1 29.9844 3.1C29.211 3.1 28.6444 3.48667 28.2844 4.26C27.9377 5.02 27.7644 6.24667 27.7644 7.94C27.7644 9.63333 27.9377 10.8667 28.2844 11.64C28.6444 12.4133 29.211 12.8 29.9844 12.8ZM46.5825 9.1V10.34H49.0625C49.3292 10.34 49.5558 10.4267 49.7425 10.6C49.9292 10.76 50.0225 10.98 50.0225 11.26C50.0225 11.5267 49.9292 11.7467 49.7425 11.92C49.5558 12.08 49.3292 12.16 49.0625 12.16H46.5825V13.56C46.5825 14.0667 46.4358 14.4533 46.1425 14.72C45.8625 14.9867 45.5025 15.12 45.0625 15.12C44.6358 15.12 44.2825 14.9867 44.0025 14.72C43.7225 14.4533 43.5825 14.0667 43.5825 13.56V12.16H42.6625C42.3958 12.16 42.1625 12.08 41.9625 11.92C41.7758 11.7467 41.6825 11.5267 41.6825 11.26C41.6825 10.98 41.7758 10.76 41.9625 10.6C42.1625 10.4267 42.3958 10.34 42.6625 10.34H43.5825V9.1H42.6625C42.3958 9.1 42.1625 9.01333 41.9625 8.84C41.7758 8.66667 41.6825 8.44667 41.6825 8.18C41.6825 7.91333 41.7758 7.69333 41.9625 7.52C42.1625 7.34667 42.3958 7.26 42.6625 7.26H43.5825V2.36C43.5825 1.89333 43.7025 1.53333 43.9425 1.28C44.1958 1.02667 44.5558 0.899999 45.0225 0.899999H48.4625C49.4758 0.899999 50.3425 1.07333 51.0625 1.42C51.7958 1.76667 52.3492 2.24667 52.7225 2.86C53.0958 3.46 53.2825 4.14667 53.2825 4.92C53.2825 6.25333 52.8625 7.28667 52.0225 8.02C51.1958 8.74 50.0092 9.1 48.4625 9.1H46.5825ZM46.5425 7.26H47.7225C48.6292 7.26 49.3092 7.10667 49.7625 6.8C50.2158 6.48 50.4425 5.98667 50.4425 5.32C50.4425 4.56 50.2358 4.01333 49.8225 3.68C49.4092 3.34667 48.7758 3.18 47.9225 3.18H46.5425V7.26Z" fill="#F44336"/>
</svg>
