<svg width="14" height="14" viewBox="0 0 14 14" fill="none" xmlns="http://www.w3.org/2000/svg">
<path fill-rule="evenodd" clip-rule="evenodd" d="M11.1108 13.2239C11.357 13.0389 11.411 12.7345 11.2609 12.3048L10.0061 8.58657L13.2121 6.30075C13.5844 6.03814 13.7345 5.75764 13.6384 5.46519C13.5424 5.17275 13.2602 5.02951 12.7979 5.03548L8.86538 5.06532L7.67062 1.32922C7.52652 0.89354 7.31039 0.666748 6.99819 0.666748C6.69199 0.666748 6.47586 0.89354 6.33177 1.32922L5.13701 5.06532L1.2045 5.03548C0.742211 5.02951 0.460031 5.17275 0.36397 5.46519C0.261905 5.75764 0.418005 6.03814 0.790241 6.30075L3.99628 8.58657L2.74148 12.3048C2.59139 12.7345 2.64542 13.0389 2.89158 13.2239C3.13773 13.4149 3.44993 13.3492 3.82217 13.0806L6.99819 10.759L10.1802 13.0806C10.5524 13.3492 10.8586 13.4149 11.1108 13.2239Z" fill="#FEBA0C"/>
</svg>
